<svg width="43" height="46" viewBox="0 0 43 46" fill="none" xmlns="http://www.w3.org/2000/svg">
<g filter="url(#filter0_d_632_219)">
<path d="M19 6H25.303L39 23L25.303 40H19L32.697 23L19 6Z" fill="#37779D"/>
<path d="M8 6H14.303L28 23L14.303 40H8L21.697 23L8 6Z" fill="#37779D"/>
<path d="M25.1834 39.75H19.5225L32.8916 23.1569L33.018 23L32.8916 22.8431L19.5225 6.25H25.1834L38.679 23L25.1834 39.75ZM14.1834 39.75H8.52247L21.8916 23.1569L22.018 23L21.8916 22.8431L8.52248 6.25H14.1834L27.679 23L14.1834 39.75Z" stroke="url(#paint0_linear_632_219)" stroke-width="0.5"/>
</g>
<defs>
<filter id="filter0_d_632_219" x="0" y="0" width="43" height="46" filterUnits="userSpaceOnUse" color-interpolation-filters="sRGB">
<feFlood flood-opacity="0" result="BackgroundImageFix"/>
<feColorMatrix in="SourceAlpha" type="matrix" values="0 0 0 0 0 0 0 0 0 0 0 0 0 0 0 0 0 0 127 0" result="hardAlpha"/>
<feOffset dx="-2"/>
<feGaussianBlur stdDeviation="3"/>
<feComposite in2="hardAlpha" operator="out"/>
<feColorMatrix type="matrix" values="0 0 0 0 0 0 0 0 0 0 0 0 0 0 0 0 0 0 1 0"/>
<feBlend mode="normal" in2="BackgroundImageFix" result="effect1_dropShadow_632_219"/>
<feBlend mode="normal" in="SourceGraphic" in2="effect1_dropShadow_632_219" result="shape"/>
</filter>
<linearGradient id="paint0_linear_632_219" x1="39" y1="23" x2="7.99999" y2="22.9602" gradientUnits="userSpaceOnUse">
<stop stop-color="white"/>
<stop offset="1" stop-color="#121212"/>
</linearGradient>
</defs>
</svg>
