<svg width="45" height="34" viewBox="0 0 45 34" fill="none" xmlns="http://www.w3.org/2000/svg">
<g filter="url(#filter0_d_814_184)">
<path d="M10.0801 4.71857H14.6183L24.4801 16.9312L14.6183 29.1438H10.0801L19.9419 16.9312L10.0801 4.71857Z" fill="url(#paint0_linear_814_184)"/>
<path d="M14.5151 28.9278H10.5321L20.1099 17.0669L20.2195 16.9312L20.1099 16.7955L10.5321 4.93457H14.5151L24.2024 16.9312L14.5151 28.9278Z" stroke="url(#paint1_linear_814_184)" stroke-width="0.432"/>
</g>
<g filter="url(#filter1_d_814_184)">
<path d="M20.0801 4.71857H24.6183L34.4801 16.9312L24.6183 29.1438H20.0801L29.9419 16.9312L20.0801 4.71857Z" fill="url(#paint2_linear_814_184)"/>
<path d="M24.5151 28.9278H20.5321L30.1099 17.0669L30.2195 16.9312L30.1099 16.7955L20.5321 4.93457H24.5151L34.2024 16.9312L24.5151 28.9278Z" stroke="url(#paint3_linear_814_184)" stroke-width="0.432"/>
</g>
<defs>
<filter id="filter0_d_814_184" x="4.32008" y="0.398567" width="23.0404" height="33.0652" filterUnits="userSpaceOnUse" color-interpolation-filters="sRGB">
<feFlood flood-opacity="0" result="BackgroundImageFix"/>
<feColorMatrix in="SourceAlpha" type="matrix" values="0 0 0 0 0 0 0 0 0 0 0 0 0 0 0 0 0 0 127 0" result="hardAlpha"/>
<feOffset dx="-1.44"/>
<feGaussianBlur stdDeviation="2.16"/>
<feComposite in2="hardAlpha" operator="out"/>
<feColorMatrix type="matrix" values="0 0 0 0 0 0 0 0 0 0 0 0 0 0 0 0 0 0 1 0"/>
<feBlend mode="normal" in2="BackgroundImageFix" result="effect1_dropShadow_814_184"/>
<feBlend mode="normal" in="SourceGraphic" in2="effect1_dropShadow_814_184" result="shape"/>
</filter>
<filter id="filter1_d_814_184" x="14.3201" y="0.398567" width="23.0404" height="33.0652" filterUnits="userSpaceOnUse" color-interpolation-filters="sRGB">
<feFlood flood-opacity="0" result="BackgroundImageFix"/>
<feColorMatrix in="SourceAlpha" type="matrix" values="0 0 0 0 0 0 0 0 0 0 0 0 0 0 0 0 0 0 127 0" result="hardAlpha"/>
<feOffset dx="-1.44"/>
<feGaussianBlur stdDeviation="2.16"/>
<feComposite in2="hardAlpha" operator="out"/>
<feColorMatrix type="matrix" values="0 0 0 0 0 0 0 0 0 0 0 0 0 0 0 0 0 0 1 0"/>
<feBlend mode="normal" in2="BackgroundImageFix" result="effect1_dropShadow_814_184"/>
<feBlend mode="normal" in="SourceGraphic" in2="effect1_dropShadow_814_184" result="shape"/>
</filter>
<linearGradient id="paint0_linear_814_184" x1="18.614" y1="29.8621" x2="18.3337" y2="4.65625" gradientUnits="userSpaceOnUse">
<stop stop-color="#08466B"/>
<stop offset="0.5" stop-color="#71BDEB"/>
<stop offset="1" stop-color="#08466B"/>
</linearGradient>
<linearGradient id="paint1_linear_814_184" x1="24.4801" y1="16.9646" x2="10.0801" y2="16.9006" gradientUnits="userSpaceOnUse">
<stop stop-color="white"/>
<stop offset="1" stop-color="#121212"/>
</linearGradient>
<linearGradient id="paint2_linear_814_184" x1="28.614" y1="29.8621" x2="28.3337" y2="4.65625" gradientUnits="userSpaceOnUse">
<stop stop-color="#08466B"/>
<stop offset="0.5" stop-color="#71BDEB"/>
<stop offset="1" stop-color="#08466B"/>
</linearGradient>
<linearGradient id="paint3_linear_814_184" x1="34.4801" y1="16.9646" x2="20.0801" y2="16.9006" gradientUnits="userSpaceOnUse">
<stop stop-color="white"/>
<stop offset="1" stop-color="#121212"/>
</linearGradient>
</defs>
</svg>
