<svg width="300" height="50" viewBox="0 0 300 50" fill="none" xmlns="http://www.w3.org/2000/svg">
<path d="M5 0.5H295C297.485 0.5 299.5 2.51472 299.5 5V15.7382V33.9219V44.6996C299.5 47.1848 297.485 49.1996 295 49.1996H135.589H56.7227H5C2.51472 49.1996 0.5 47.1848 0.5 44.6996V34.4347V15.7776V5C0.5 2.51472 2.51472 0.5 5 0.5Z" fill="#900F37" fill-opacity="0.8" stroke="url(#paint0_linear_772_347)"/>
<path d="M109.214 16.3895V26.7335H104.534L109.214 33.1895H104.558L99.8781 26.7335H96.3021V33.1895H92.4141V16.3895H96.3021V22.8455H105.326V16.3895H109.214ZM125.001 16.3895H128.889V33.1895H112.089V29.3015H125.001V26.7335H112.089V16.3895H115.977V22.8455H125.001V16.3895ZM148.565 16.3895V33.1895H144.677V20.2535H135.653V33.1895H131.765V16.3895H148.565ZM163.56 16.3895H168.24V33.1895H164.352V21.7415L156.096 33.1895H151.44V16.3895H155.328V27.8135L163.56 16.3895ZM187.915 16.3895V20.2775H181.459V33.1895H177.571V20.2775H171.115V16.3895H187.915ZM194.679 22.8455H207.591V33.1895H190.791V16.3895H194.679V22.8455ZM194.679 29.3015H203.727V26.7335H194.679V29.3015Z" fill="url(#paint1_linear_772_347)"/>
<defs>
<linearGradient id="paint0_linear_772_347" x1="-80.6962" y1="-10.2323" x2="149.798" y2="257.475" gradientUnits="userSpaceOnUse">
<stop stop-color="#727272"/>
<stop offset="0.19" stop-color="#B1B1B1"/>
<stop offset="0.5" stop-color="#E8E8E8"/>
<stop offset="0.76" stop-color="#A4A4A4"/>
<stop offset="1" stop-color="#424242"/>
</linearGradient>
<linearGradient id="paint1_linear_772_347" x1="59.2595" y1="12.6895" x2="135.761" y2="114.862" gradientUnits="userSpaceOnUse">
<stop stop-color="#727272"/>
<stop offset="0.19" stop-color="#B1B1B1"/>
<stop offset="0.5" stop-color="#E8E8E8"/>
<stop offset="0.76" stop-color="#A4A4A4"/>
<stop offset="1" stop-color="#424242"/>
</linearGradient>
</defs>
</svg>
