<svg width="100" height="38" viewBox="0 0 100 38" fill="none" xmlns="http://www.w3.org/2000/svg">
<path d="M75.7719 23.388C75.7719 23.2495 75.8843 23.1372 76.0229 23.1372C76.1616 23.1372 76.274 23.2495 76.274 23.388V25.3318H75.7719V23.388Z" fill="#900F37"/>
<path d="M65.5408 23.8896C65.5408 23.7511 65.4284 23.6388 65.2898 23.6388C65.1511 23.6388 65.0387 23.7511 65.0387 23.8896V25.3318H65.5408V23.8896Z" fill="#900F37"/>
<path d="M76.7762 24.2658C76.7762 24.1273 76.8886 24.015 77.0272 24.015C77.1659 24.015 77.2783 24.1273 77.2783 24.2658V25.3318H76.7762V24.2658Z" fill="#900F37"/>
<path d="M64.5366 24.015C64.5366 23.8765 64.4241 23.7642 64.2855 23.7642C64.1468 23.7642 64.0344 23.8765 64.0344 24.015V25.3318H64.5366V24.015Z" fill="#900F37"/>
<path d="M81.672 24.2658C81.672 24.1273 81.7844 24.015 81.9231 24.015C82.0617 24.015 82.1741 24.1273 82.1741 24.2658V25.3318H81.672V24.2658Z" fill="#900F37"/>
<path d="M59.578 24.2972C59.578 24.176 59.4796 24.0777 59.3583 24.0777C59.2369 24.0777 59.1386 24.176 59.1386 24.2972V25.3318H59.578V24.2972Z" fill="#900F37"/>
<path d="M75.3953 24.3286C75.3953 24.19 75.2829 24.0777 75.1442 24.0777C75.0055 24.0777 74.8931 24.19 74.8931 24.3286V25.3318H75.3953V24.3286Z" fill="#900F37"/>
<path d="M77.7177 22.8237C77.7177 22.6852 77.8301 22.5729 77.9687 22.5729C78.1074 22.5729 78.2198 22.6852 78.2198 22.8237V25.3318H77.7177V22.8237Z" fill="#900F37"/>
<path d="M63.5951 22.8237C63.5951 22.6852 63.4826 22.5729 63.344 22.5729C63.2053 22.5729 63.0929 22.6852 63.0929 22.8237V25.3318H63.5951V22.8237Z" fill="#900F37"/>
<path d="M80.7305 24.015C80.7305 23.8765 80.8429 23.7642 80.9816 23.7642C81.1202 23.7642 81.2326 23.8765 81.2326 24.015V25.3318H80.7305V24.015Z" fill="#900F37"/>
<path d="M60.5822 23.1999C60.5822 23.0614 60.4698 22.9491 60.3312 22.9491C60.1925 22.9491 60.0801 23.0614 60.0801 23.1999V25.3318H60.5822V23.1999Z" fill="#900F37"/>
<path d="M51.2299 24.7048C51.2299 24.5662 51.3423 24.454 51.481 24.454C51.6197 24.454 51.7321 24.5662 51.7321 24.7048V25.3318H51.2299V24.7048Z" fill="#900F37"/>
<path d="M52.2342 24.3599C52.2342 24.2387 52.3326 24.1404 52.4539 24.1404C52.5752 24.1404 52.6736 24.2387 52.6736 24.3599V25.3318H52.2342V24.3599Z" fill="#900F37"/>
<path d="M53.1757 23.6388C53.1757 23.5003 53.2881 23.388 53.4268 23.388C53.5654 23.388 53.6778 23.5003 53.6778 23.6388V25.3318H53.1757V23.6388Z" fill="#900F37"/>
<path d="M54.18 24.0777C54.18 23.9392 54.2924 23.8269 54.431 23.8269C54.5697 23.8269 54.6821 23.9392 54.6821 24.0777V25.3318H54.18V24.0777Z" fill="#900F37"/>
<path d="M55.1843 24.3913C55.1843 24.2527 55.2967 24.1404 55.4353 24.1404C55.574 24.1404 55.6864 24.2527 55.6864 24.3913V25.3318H55.1843V24.3913Z" fill="#900F37"/>
<path d="M84.6848 24.015C84.6848 23.8765 84.7972 23.7642 84.9359 23.7642C85.0745 23.7642 85.187 23.8765 85.187 24.015V25.3318H84.6848V24.015Z" fill="#900F37"/>
<path d="M56.6279 23.8896C56.6279 23.7511 56.5155 23.6388 56.3768 23.6388C56.2382 23.6388 56.1258 23.7511 56.1258 23.8896V25.3318H56.6279V23.8896Z" fill="#900F37"/>
<path d="M78.7219 22.134C78.7219 21.9954 78.8343 21.8832 78.973 21.8832C79.1117 21.8832 79.2241 21.9954 79.2241 22.134V25.3318H78.7219V22.134Z" fill="#900F37"/>
<path d="M62.5908 23.6388C62.5908 23.5003 62.4784 23.388 62.3397 23.388C62.201 23.388 62.0886 23.5003 62.0886 23.6388V25.3318H62.5908V23.6388Z" fill="#900F37"/>
<path d="M82.6763 23.0118C82.6763 22.8733 82.7887 22.761 82.9273 22.761C83.066 22.761 83.1784 22.8733 83.1784 23.0118V25.3318H82.6763V23.0118Z" fill="#900F37"/>
<path d="M58.6364 23.0118C58.6364 22.8733 58.524 22.761 58.3854 22.761C58.2467 22.761 58.1343 22.8733 58.1343 23.0118V25.3318H58.6364V23.0118Z" fill="#900F37"/>
<path d="M85.6891 22.1653C85.6891 22.0441 85.7874 21.9459 85.9088 21.9459C86.0301 21.9459 86.1285 22.0441 86.1285 22.1653V25.3318H85.6891V22.1653Z" fill="#900F37"/>
<path d="M96.5478 22.1967C96.5478 22.0581 96.6602 21.9459 96.7989 21.9459C96.9375 21.9459 97.0499 22.0581 97.0499 22.1967V25.3318H96.5478V22.1967Z" fill="#900F37"/>
<path d="M47.2756 22.1967C47.2756 22.0581 47.388 21.9459 47.5267 21.9459C47.6653 21.9459 47.7777 22.0581 47.7777 22.1967V25.3318H47.2756V22.1967Z" fill="#900F37"/>
<path d="M71.0016 22.7923C71.0016 22.6711 71.0999 22.5729 71.2213 22.5729C71.3426 22.5729 71.4409 22.6711 71.4409 22.7923V25.3318H71.0016V22.7923Z" fill="#900F37"/>
<path d="M86.6306 21.7577C86.6306 21.6192 86.743 21.5069 86.8817 21.5069C87.0203 21.5069 87.1327 21.6192 87.1327 21.7577V25.3318H86.6306V21.7577Z" fill="#900F37"/>
<path d="M83.6805 23.3253C83.6805 23.1868 83.7929 23.0745 83.9316 23.0745C84.0703 23.0745 84.1827 23.1868 84.1827 23.3253V25.3318H83.6805V23.3253Z" fill="#900F37"/>
<path d="M57.6322 23.388C57.6322 23.2495 57.5198 23.1372 57.3811 23.1372C57.2424 23.1372 57.13 23.2495 57.13 23.388V25.3318H57.6322V23.388Z" fill="#900F37"/>
<path d="M87.6349 23.6388C87.6349 23.5003 87.7473 23.388 87.8859 23.388C88.0246 23.388 88.137 23.5003 88.137 23.6388V25.3318H87.6349V23.6388Z" fill="#900F37"/>
<path d="M38.3627 23.6388C38.3627 23.5003 38.4751 23.388 38.6137 23.388C38.7524 23.388 38.8648 23.5003 38.8648 23.6388V25.3318H38.3627V23.6388Z" fill="#900F37"/>
<path d="M88.6391 24.2658C88.6391 24.1273 88.7516 24.015 88.8902 24.015C89.0289 24.015 89.1413 24.1273 89.1413 24.2658V25.3318H88.6391V24.2658Z" fill="#900F37"/>
<path d="M39.3669 24.3286C39.3669 24.19 39.4793 24.0777 39.618 24.0777C39.7567 24.0777 39.8691 24.19 39.8691 24.3286V25.3318H39.3669V24.3286Z" fill="#900F37"/>
<path d="M89.6434 23.6075C89.6434 23.4863 89.7418 23.388 89.8631 23.388C89.9844 23.388 90.0828 23.4863 90.0828 23.6075V25.3318H89.6434V23.6075Z" fill="#900F37"/>
<path d="M40.3084 23.6388C40.3084 23.5003 40.4208 23.388 40.5595 23.388C40.6982 23.388 40.8106 23.5003 40.8106 23.6388V25.3318H40.3084V23.6388Z" fill="#900F37"/>
<path d="M90.5849 23.0118C90.5849 22.8733 90.6973 22.761 90.836 22.761C90.9747 22.761 91.0871 22.8733 91.0871 23.0118V25.3318H90.5849V23.0118Z" fill="#900F37"/>
<path d="M41.3127 23.0118C41.3127 22.8733 41.4251 22.761 41.5638 22.761C41.7024 22.761 41.8148 22.8733 41.8148 23.0118V25.3318H41.3127V23.0118Z" fill="#900F37"/>
<path d="M97.5521 22.9804C97.5521 22.8592 97.6504 22.761 97.7718 22.761C97.8931 22.761 97.9915 22.8592 97.9915 22.9804V25.3318H97.5521V22.9804Z" fill="#900F37"/>
<path d="M48.2799 22.9804C48.2799 22.8592 48.3782 22.761 48.4996 22.761C48.6209 22.761 48.7192 22.8592 48.7192 22.9804V25.3318H48.2799V22.9804Z" fill="#900F37"/>
<path d="M72.0059 23.6075C72.0059 23.4863 72.1042 23.388 72.2255 23.388C72.3469 23.388 72.4452 23.4863 72.4452 23.6075V25.3318H72.0059V23.6075Z" fill="#900F37"/>
<path d="M74.0144 23.6075C74.0144 23.4863 74.1128 23.388 74.2341 23.388C74.3554 23.388 74.4538 23.4863 74.4538 23.6075V25.3318H74.0144V23.6075Z" fill="#900F37"/>
<path d="M91.5892 23.3253C91.5892 23.1868 91.7016 23.0745 91.8403 23.0745C91.9789 23.0745 92.0913 23.1868 92.0913 23.3253V25.3318H91.5892V23.3253Z" fill="#900F37"/>
<path d="M42.317 23.388C42.317 23.2495 42.4294 23.1372 42.5681 23.1372C42.7067 23.1372 42.8191 23.2495 42.8191 23.388V25.3318H42.317V23.388Z" fill="#900F37"/>
<path d="M66.043 23.388C66.043 23.2495 66.1554 23.1372 66.294 23.1372C66.4327 23.1372 66.5451 23.2495 66.5451 23.388V25.3318H66.043V23.388Z" fill="#900F37"/>
<path d="M98.4936 23.3253C98.4936 23.1868 98.606 23.0745 98.7447 23.0745C98.8833 23.0745 98.9957 23.1868 98.9957 23.3253V25.3318H98.4936V23.3253Z" fill="#900F37"/>
<path d="M49.2214 23.388C49.2214 23.2495 49.3338 23.1372 49.4724 23.1372C49.6111 23.1372 49.7235 23.2495 49.7235 23.388V25.3318H49.2214V23.388Z" fill="#900F37"/>
<path d="M73.0101 23.388C73.0101 23.2495 73.1225 23.1372 73.2612 23.1372C73.3999 23.1372 73.5123 23.2495 73.5123 23.388V25.3318H73.0101V23.388Z" fill="#900F37"/>
<path d="M92.5935 23.9523C92.5935 23.8138 92.7059 23.7015 92.8445 23.7015C92.9832 23.7015 93.0956 23.8138 93.0956 23.9523V25.3318H92.5935V23.9523Z" fill="#900F37"/>
<path d="M43.3213 24.015C43.3213 23.8765 43.4337 23.7642 43.5723 23.7642C43.711 23.7642 43.8234 23.8765 43.8234 24.015V25.3318H43.3213V24.015Z" fill="#900F37"/>
<path d="M67.0472 24.015C67.0472 23.8765 67.1597 23.7642 67.2983 23.7642C67.437 23.7642 67.5494 23.8765 67.5494 24.015V25.3318H67.0472V24.015Z" fill="#900F37"/>
<path d="M99.4979 23.9523C99.4979 23.8138 99.6103 23.7015 99.7489 23.7015C99.8876 23.7015 100 23.8138 100 23.9523V25.3318H99.4979V23.9523Z" fill="#900F37"/>
<path d="M50.2257 24.015C50.2257 23.8765 50.3381 23.7642 50.4767 23.7642C50.6154 23.7642 50.7278 23.8765 50.7278 24.015V25.3318H50.2257V24.015Z" fill="#900F37"/>
<path d="M93.5977 21.7264C93.5977 21.6052 93.6961 21.5069 93.8174 21.5069C93.9388 21.5069 94.0371 21.6052 94.0371 21.7264V25.3318H93.5977V21.7264Z" fill="#900F37"/>
<path d="M44.3255 24.6734C44.3255 24.5522 44.4239 24.454 44.5452 24.454C44.6665 24.454 44.7649 24.5522 44.7649 24.6734V25.3318H44.3255V24.6734Z" fill="#900F37"/>
<path d="M68.0515 24.2658C68.0515 24.1273 68.1639 24.015 68.3026 24.015C68.4412 24.015 68.5537 24.1273 68.5537 24.2658V25.3318H68.0515V24.2658Z" fill="#900F37"/>
<path d="M94.5393 22.5729C94.5393 22.4344 94.6517 22.3221 94.7903 22.3221C94.929 22.3221 95.0414 22.4344 95.0414 22.5729V25.3318H94.5393V22.5729Z" fill="#900F37"/>
<path d="M45.267 22.5729C45.267 22.4344 45.3795 22.3221 45.5181 22.3221C45.6568 22.3221 45.7692 22.4344 45.7692 22.5729V25.3318H45.267V22.5729Z" fill="#900F37"/>
<path d="M69.0558 22.9804C69.0558 22.8592 69.1542 22.761 69.2755 22.761C69.3968 22.761 69.4952 22.8592 69.4952 22.9804V25.3318H69.0558V22.9804Z" fill="#900F37"/>
<path d="M95.5435 21.7577C95.5435 21.6192 95.6559 21.5069 95.7946 21.5069C95.9333 21.5069 96.0457 21.6192 96.0457 21.7577V25.3318H95.5435V21.7577Z" fill="#900F37"/>
<path d="M46.2713 21.7577C46.2713 21.6192 46.3837 21.5069 46.5224 21.5069C46.661 21.5069 46.7735 21.6192 46.7735 21.7577V25.3318H46.2713V21.7577Z" fill="#900F37"/>
<path d="M70.0601 22.1026C70.0601 21.9814 70.1584 21.8832 70.2798 21.8832C70.4011 21.8832 70.4994 21.9814 70.4994 22.1026V25.3318H70.0601V22.1026Z" fill="#900F37"/>
<path d="M79.7262 22.6356C79.7262 22.4971 79.8386 22.3848 79.9773 22.3848C80.1159 22.3848 80.2283 22.4971 80.2283 22.6356V25.3318H79.7262V22.6356Z" fill="#900F37"/>
<path d="M61.5865 24.015C61.5865 23.8765 61.4741 23.7642 61.3354 23.7642C61.1968 23.7642 61.0844 23.8765 61.0844 24.015V25.3318H61.5865V24.015Z" fill="#900F37"/>
<path d="M30.8856 38C30.0942 38 29.3209 37.8966 28.566 37.6898C27.811 37.483 27.2082 37.2215 26.7577 36.9052L27.6344 35.1718C28.0728 35.4638 28.5964 35.701 29.2052 35.8834C29.8263 36.0537 30.4351 36.1389 31.0318 36.1389C32.3956 36.1389 33.0775 35.78 33.0775 35.0623C33.0775 34.7217 32.9009 34.4845 32.5478 34.3507C32.2068 34.2169 31.6528 34.0892 30.8856 33.9675C30.082 33.8459 29.4244 33.706 28.913 33.5479C28.4137 33.3897 27.9754 33.116 27.5979 32.7268C27.2326 32.3254 27.0499 31.7719 27.0499 31.0664C27.0499 30.1419 27.4335 29.4059 28.2007 28.8586C28.98 28.299 30.0272 28.0192 31.3423 28.0192C32.012 28.0192 32.6817 28.0983 33.3515 28.2564C34.0212 28.4024 34.5691 28.6031 34.9953 28.8586L34.1186 30.592C33.2906 30.1054 32.359 29.8621 31.324 29.8621C30.6543 29.8621 30.1429 29.9655 29.7897 30.1723C29.4488 30.3669 29.2783 30.6285 29.2783 30.9569C29.2783 31.3218 29.461 31.5833 29.8263 31.7415C30.2037 31.8875 30.7821 32.0273 31.5615 32.1612C32.3408 32.2828 32.9801 32.4227 33.4793 32.5808C33.9786 32.739 34.4048 33.0066 34.7579 33.3837C35.1232 33.7608 35.3058 34.296 35.3058 34.9893C35.3058 35.9017 34.9101 36.6315 34.1186 37.1789C33.3271 37.7263 32.2495 38 30.8856 38Z" fill="#900F37"/>
<path d="M49.5463 33.0552C49.5463 33.2134 49.5341 33.4384 49.5098 33.7303H41.8566C41.9906 34.448 42.3376 35.0198 42.8978 35.4455C43.4701 35.8591 44.1763 36.0659 45.0165 36.0659C46.0881 36.0659 46.9709 35.7131 47.665 35.0076L48.8888 36.4126C48.4504 36.9356 47.8963 37.331 47.2266 37.5986C46.5569 37.8662 45.8019 38 44.9617 38C43.8902 38 42.9465 37.7871 42.1306 37.3614C41.3148 36.9356 40.6816 36.3457 40.231 35.5915C39.7927 34.8251 39.5735 33.9615 39.5735 33.0005C39.5735 32.0517 39.7866 31.2002 40.2128 30.446C40.6511 29.6796 41.2539 29.0836 42.021 28.6578C42.7882 28.2321 43.6527 28.0192 44.6147 28.0192C45.5645 28.0192 46.4108 28.2321 47.1536 28.6578C47.9085 29.0714 48.493 29.6614 48.907 30.4277C49.3332 31.1819 49.5463 32.0578 49.5463 33.0552ZM44.6147 29.8439C43.8841 29.8439 43.2631 30.0628 42.7516 30.5007C42.2524 30.9265 41.948 31.4982 41.8384 32.2159H47.3727C47.2753 31.5104 46.977 30.9386 46.4777 30.5007C45.9785 30.0628 45.3575 29.8439 44.6147 29.8439Z" fill="#900F37"/>
<path d="M59.3195 38C58.3088 38 57.4016 37.7871 56.598 37.3614C55.7943 36.9356 55.1672 36.3457 54.7166 35.5915C54.2661 34.8251 54.0408 33.9615 54.0408 33.0005C54.0408 32.0395 54.2661 31.1819 54.7166 30.4277C55.1672 29.6736 55.7882 29.0836 56.5797 28.6578C57.3834 28.2321 58.2966 28.0192 59.3195 28.0192C60.2815 28.0192 61.1217 28.2138 61.8401 28.6031C62.5707 28.9924 63.1187 29.5519 63.484 30.2818L61.7305 31.3036C61.4504 30.8535 61.0973 30.519 60.6711 30.3C60.2571 30.0689 59.8005 29.9533 59.3012 29.9533C58.4488 29.9533 57.7426 30.2331 57.1825 30.7927C56.6223 31.3401 56.3423 32.076 56.3423 33.0005C56.3423 33.925 56.6162 34.667 57.1642 35.2265C57.7243 35.7739 58.4367 36.0476 59.3012 36.0476C59.8005 36.0476 60.2571 35.9382 60.6711 35.7192C61.0973 35.4881 61.4504 35.1475 61.7305 34.6974L63.484 35.7192C63.1065 36.4491 62.5524 37.0147 61.8218 37.4161C61.1034 37.8054 60.2693 38 59.3195 38Z" fill="#900F37"/>
<path d="M74.5507 37.3431C74.2828 37.5621 73.954 37.7263 73.5644 37.8358C73.1869 37.9453 72.7851 38 72.3589 38C71.2873 38 70.4593 37.7202 69.8748 37.1607C69.2903 36.6011 68.9981 35.7861 68.9981 34.7156V30.0263H67.3907V28.2017H68.9981V25.9756H71.2812V28.2017H73.8932V30.0263H71.2812V34.6609C71.2812 35.1353 71.3969 35.5002 71.6283 35.7557C71.8596 35.999 72.1945 36.1206 72.6329 36.1206C73.1443 36.1206 73.5705 35.9868 73.9114 35.7192L74.5507 37.3431Z" fill="#900F37"/>
<path d="M83.5966 38C82.6102 38 81.7213 37.7871 80.9298 37.3614C80.1384 36.9356 79.5173 36.3457 79.0668 35.5915C78.6284 34.8251 78.4092 33.9615 78.4092 33.0005C78.4092 32.0395 78.6284 31.1819 79.0668 30.4277C79.5173 29.6736 80.1384 29.0836 80.9298 28.6578C81.7213 28.2321 82.6102 28.0192 83.5966 28.0192C84.5951 28.0192 85.4901 28.2321 86.2816 28.6578C87.0731 29.0836 87.688 29.6736 88.1264 30.4277C88.5769 31.1819 88.8022 32.0395 88.8022 33.0005C88.8022 33.9615 88.5769 34.8251 88.1264 35.5915C87.688 36.3457 87.0731 36.9356 86.2816 37.3614C85.4901 37.7871 84.5951 38 83.5966 38ZM83.5966 36.0476C84.4368 36.0476 85.1309 35.7679 85.6788 35.2083C86.2268 34.6487 86.5007 33.9128 86.5007 33.0005C86.5007 32.0882 86.2268 31.3522 85.6788 30.7927C85.1309 30.2331 84.4368 29.9533 83.5966 29.9533C82.7564 29.9533 82.0623 30.2331 81.5143 30.7927C80.9785 31.3522 80.7107 32.0882 80.7107 33.0005C80.7107 33.9128 80.9785 34.6487 81.5143 35.2083C82.0623 35.7679 82.7564 36.0476 83.5966 36.0476Z" fill="#900F37"/>
<path d="M96.2641 29.5519C96.9216 28.5301 98.0784 28.0192 99.7345 28.0192V30.1905C99.5396 30.154 99.3631 30.1358 99.2048 30.1358C98.3159 30.1358 97.6218 30.3973 97.1226 30.9204C96.6233 31.4313 96.3737 32.1733 96.3737 33.1465V37.8723H94.0905V28.1287H96.2641V29.5519Z" fill="#900F37"/>
<path d="M15.2031 15.7398H5.58088L3.68393 20.1889H0L8.65998 0.964359H12.179L20.8664 20.1889H17.1275L15.2031 15.7398ZM14.0209 12.9385L10.392 4.53464L6.79053 12.9385H14.0209Z" fill="#191919"/>
<path d="M46.8034 0.964359H55.216C57.2687 0.964359 59.0924 1.36716 60.6869 2.17276C62.2814 2.96005 63.5186 4.08606 64.3983 5.55079C65.2781 6.99721 65.7179 8.6725 65.7179 10.5766C65.7179 12.4808 65.2781 14.1652 64.3983 15.63C63.5186 17.0764 62.2814 18.2024 60.6869 19.008C59.0924 19.7953 57.2687 20.1889 55.216 20.1889H46.8034V0.964359ZM55.051 17.1679C56.4623 17.1679 57.6994 16.9024 58.7625 16.3715C59.8438 15.8222 60.6686 15.0532 61.2367 14.0645C61.8232 13.0575 62.1165 11.8949 62.1165 10.5766C62.1165 9.25839 61.8232 8.10491 61.2367 7.11622C60.6686 6.10922 59.8438 5.34024 58.7625 4.80927C57.6994 4.26 56.4623 3.98536 55.051 3.98536H50.3774V17.1679H55.051Z" fill="#191919"/>
<path d="M70.6162 0.964359H74.1902V20.1889H70.6162V0.964359Z" fill="#191919"/>
<path d="M89.485 20.4636C87.5239 20.4636 85.7552 20.0425 84.179 19.2002C82.6028 18.3397 81.3657 17.1588 80.4676 15.6574C79.5695 14.1378 79.1205 12.4442 79.1205 10.5766C79.1205 8.70912 79.5695 7.02468 80.4676 5.52333C81.3657 4.00367 82.6028 2.82273 84.179 1.98052C85.7552 1.11999 87.5239 0.689723 89.485 0.689723C91.4461 0.689723 93.2148 1.11999 94.791 1.98052C96.3672 2.82273 97.6043 3.99452 98.5024 5.49587C99.4005 6.99721 99.8495 8.69081 99.8495 10.5766C99.8495 12.4625 99.4005 14.1561 98.5024 15.6574C97.6043 17.1588 96.3672 18.3397 94.791 19.2002C93.2148 20.0425 91.4461 20.4636 89.485 20.4636ZM89.485 17.3327C90.768 17.3327 91.9226 17.0489 92.949 16.4813C93.9754 15.8954 94.7818 15.0898 95.3683 14.0645C95.9548 13.0209 96.248 11.8583 96.248 10.5766C96.248 9.29501 95.9548 8.14153 95.3683 7.11622C94.7818 6.0726 93.9754 5.267 92.949 4.69942C91.9226 4.11353 90.768 3.82058 89.485 3.82058C88.202 3.82058 87.0474 4.11353 86.021 4.69942C84.9946 5.267 84.1882 6.0726 83.6017 7.11622C83.0152 8.14153 82.722 9.29501 82.722 10.5766C82.722 11.8583 83.0152 13.0209 83.6017 14.0645C84.1882 15.0898 84.9946 15.8954 86.021 16.4813C87.0474 17.0489 88.202 17.3327 89.485 17.3327Z" fill="#191919"/>
<path d="M28.3951 0.0655459C27.9901 0.163029 27.6827 0.338497 27.3656 0.650442C26.8874 1.12811 26.7118 1.61552 26.7118 2.45875V2.92179H28.6146C30.4297 2.92179 30.5321 2.92666 30.7127 3.01927C30.9322 3.13138 31.103 3.4092 31.103 3.65291C31.103 3.89662 30.9322 4.17444 30.7127 4.28655C30.5321 4.37916 30.4297 4.38403 28.6146 4.38403H26.7118V5.84627H28.6146C30.4297 5.84627 30.5321 5.85114 30.7127 5.94375C30.9322 6.05586 31.103 6.33368 31.103 6.57739C31.103 6.8211 30.9322 7.09892 30.7127 7.21103C30.5321 7.30364 30.4297 7.30851 28.6146 7.30851H26.7118V8.77075H28.6146C30.4297 8.77075 30.5321 8.77563 30.7127 8.86823C30.9322 8.98034 31.103 9.25817 31.103 9.50187C31.103 9.74558 30.9322 10.0234 30.7127 10.1355C30.5321 10.2281 30.4297 10.233 28.6146 10.233H26.7118V11.6952H28.6146C30.4297 11.6952 30.5321 11.7001 30.7127 11.7927C30.9322 11.9048 31.103 12.1826 31.103 12.4264C31.103 12.6701 30.9322 12.9479 30.7127 13.06C30.5321 13.1526 30.4297 13.1575 28.6146 13.1575H26.7118V13.6205C26.7118 14.4637 26.8874 14.9463 27.3656 15.4288C27.6876 15.7456 28.0389 15.9406 28.4585 16.0283C28.8195 16.1015 34.8502 16.1015 35.2113 16.0283C35.6309 15.9406 35.9822 15.7456 36.3042 15.4288C36.7823 14.9463 36.958 14.4637 36.958 13.6205V13.1575H35.0502C33.162 13.1575 33.1376 13.1575 32.9473 13.0502C32.7278 12.9284 32.5667 12.6603 32.5667 12.4264C32.5667 12.1924 32.7278 11.9243 32.9473 11.8025C33.1376 11.6952 33.162 11.6952 35.0502 11.6952H36.958V10.233H35.0502C33.162 10.233 33.1376 10.233 32.9473 10.1258C32.4545 9.84794 32.4545 9.15581 32.9473 8.87798C33.1376 8.77075 33.162 8.77075 35.0502 8.77075H36.958V7.30851H35.0502C33.162 7.30851 33.1376 7.30851 32.9473 7.20128C32.4545 6.92345 32.4545 6.23133 32.9473 5.9535C33.1376 5.84627 33.162 5.84627 35.0502 5.84627H36.958V4.38403H35.0502C33.162 4.38403 33.1376 4.38403 32.9473 4.2768C32.4545 3.99897 32.4545 3.30685 32.9473 3.02902C33.1376 2.92179 33.162 2.92179 35.0502 2.92179H36.958V2.45875C36.958 1.61552 36.7823 1.13298 36.3042 0.650442C35.9822 0.328749 35.6016 0.124035 35.1966 0.0460493C34.8112 -0.0270627 28.7024 -0.00756617 28.3951 0.0655459Z" fill="url(#paint0_linear_2888_291)"/>
<path d="M24.1843 2.84177C24.0965 2.88564 23.9745 2.98799 23.916 3.07085L23.8086 3.22195L23.8087 12.3178C23.8087 14.9255 23.8135 15.0376 23.9111 15.4129C24.2771 16.7826 25.0284 17.8451 26.136 18.5567C26.9801 19.1026 27.7461 19.3317 28.8732 19.3707L29.6393 19.4V23.8695H28.4683C27.3851 23.8695 27.2777 23.8793 27.1021 23.967C26.8825 24.0791 26.7118 24.357 26.7118 24.6007C26.7118 24.8444 26.8825 25.1222 27.1021 25.2343C27.2875 25.3318 27.3802 25.3318 31.8349 25.3318C36.2896 25.3318 36.3823 25.3318 36.5677 25.2343C36.7872 25.1222 36.958 24.8444 36.958 24.6007C36.958 24.357 36.7872 24.0791 36.5677 23.967C36.392 23.8793 36.2847 23.8695 35.2015 23.8695H34.0305V19.4L34.8014 19.3707C35.948 19.3317 36.6897 19.1075 37.5728 18.5324C38.6316 17.8451 39.3732 16.7923 39.7538 15.4373C39.8514 15.0912 39.8562 14.9353 39.8758 12.4056C39.8953 9.44698 39.9554 3.10377 39.6808 2.88431C39.5238 2.75891 39.3439 2.76866 38.9243 2.75891L38.4266 2.73941L38.4071 12.0351C38.3925 14.5697 38.3827 14.9596 38.3095 15.1985C37.8948 16.5778 36.8409 17.5673 35.4845 17.8451C34.9234 17.9621 28.7464 17.9621 28.1853 17.8451C27.0094 17.6014 25.9555 16.7338 25.5212 15.6518C25.2626 15.0035 25.248 14.8329 25.248 11.8792L25.248 2.75891H24.7991C24.482 2.75891 24.2966 2.78328 24.1843 2.84177Z" fill="url(#paint1_linear_2888_291)"/>
<defs>
<linearGradient id="paint0_linear_2888_291" x1="75.8794" y1="7.78225" x2="58.9576" y2="58.3318" gradientUnits="userSpaceOnUse">
<stop stop-color="#900F37"/>
<stop offset="1"/>
</linearGradient>
<linearGradient id="paint1_linear_2888_291" x1="36.0059" y1="22.0158" x2="24.1144" y2="8.61493" gradientUnits="userSpaceOnUse">
<stop stop-color="#900F37"/>
<stop offset="1"/>
</linearGradient>
</defs>
</svg>
