<svg width="644" height="78" viewBox="0 0 644 78" fill="none" xmlns="http://www.w3.org/2000/svg">
<g filter="url(#filter0_dd_459_22)">
<g filter="url(#filter1_f_459_22)">
<rect x="17.2725" y="21" width="609.985" height="36" rx="5" fill="#A1A1A1"/>
</g>
<rect x="16.4675" y="19.25" width="611.066" height="39.5" rx="5.75" stroke="#828282" stroke-width="0.5"/>
<rect x="15.7803" y="22" width="612.441" height="34" rx="5" fill="#2D2D2D"/>
</g>
<path d="M588.243 19H627.002C629.763 19 632.002 21.2386 632.002 24V54C632.002 56.7614 629.763 59 627.002 59H588.243V19Z" fill="url(#paint0_linear_459_22)"/>
<path d="M55.2314 19H17C14.2386 19 12 21.2386 12 24V54C12 56.7614 14.2386 59 17 59H55.2314V19Z" fill="url(#paint1_linear_459_22)"/>
<defs>
<filter id="filter0_dd_459_22" x="0.780273" y="0" width="642.441" height="78" filterUnits="userSpaceOnUse" color-interpolation-filters="sRGB">
<feFlood flood-opacity="0" result="BackgroundImageFix"/>
<feColorMatrix in="SourceAlpha" type="matrix" values="0 0 0 0 0 0 0 0 0 0 0 0 0 0 0 0 0 0 127 0" result="hardAlpha"/>
<feOffset dy="4"/>
<feGaussianBlur stdDeviation="7.5"/>
<feComposite in2="hardAlpha" operator="out"/>
<feColorMatrix type="matrix" values="0 0 0 0 0 0 0 0 0 0 0 0 0 0 0 0 0 0 0.4 0"/>
<feBlend mode="normal" in2="BackgroundImageFix" result="effect1_dropShadow_459_22"/>
<feColorMatrix in="SourceAlpha" type="matrix" values="0 0 0 0 0 0 0 0 0 0 0 0 0 0 0 0 0 0 127 0" result="hardAlpha"/>
<feOffset dy="-4"/>
<feGaussianBlur stdDeviation="7.5"/>
<feComposite in2="hardAlpha" operator="out"/>
<feColorMatrix type="matrix" values="0 0 0 0 0 0 0 0 0 0 0 0 0 0 0 0 0 0 0.4 0"/>
<feBlend mode="normal" in2="effect1_dropShadow_459_22" result="effect2_dropShadow_459_22"/>
<feBlend mode="normal" in="SourceGraphic" in2="effect2_dropShadow_459_22" result="shape"/>
</filter>
<filter id="filter1_f_459_22" x="15.2725" y="19" width="613.985" height="40" filterUnits="userSpaceOnUse" color-interpolation-filters="sRGB">
<feFlood flood-opacity="0" result="BackgroundImageFix"/>
<feBlend mode="normal" in="SourceGraphic" in2="BackgroundImageFix" result="shape"/>
<feGaussianBlur stdDeviation="1" result="effect1_foregroundBlur_459_22"/>
</filter>
<linearGradient id="paint0_linear_459_22" x1="632.002" y1="39" x2="588.243" y2="39" gradientUnits="userSpaceOnUse">
<stop offset="0.125" stop-color="#191919"/>
<stop offset="1" stop-color="#191919" stop-opacity="0"/>
</linearGradient>
<linearGradient id="paint1_linear_459_22" x1="12" y1="39" x2="55.2314" y2="39" gradientUnits="userSpaceOnUse">
<stop offset="0.125" stop-color="#191919"/>
<stop offset="1" stop-color="#191919" stop-opacity="0"/>
</linearGradient>
</defs>
</svg>
