<svg width="1190" height="78" viewBox="0 0 1190 78" fill="none" xmlns="http://www.w3.org/2000/svg">
<g filter="url(#filter0_dd_459_8)">
<g filter="url(#filter1_f_459_8)">
<rect x="17" y="21" width="1157" height="36" rx="5" fill="#A1A1A1"/>
</g>
<rect x="15.25" y="19.25" width="1159.5" height="39.5" rx="5.75" stroke="#828282" stroke-width="0.5"/>
<rect x="18" y="22" width="1154" height="34" rx="5" fill="#2D2D2D"/>
</g>
<path d="M1100 19H1170C1172.76 19 1175 21.2386 1175 24V54C1175 56.7614 1172.76 59 1170 59H1100V19Z" fill="url(#paint0_linear_459_8)"/>
<path d="M97.0002 19H20.0002C17.2388 19 15.0002 21.2386 15.0002 24V54C15.0002 56.7614 17.2388 59 20.0002 59H97.0002V19Z" fill="url(#paint1_linear_459_8)"/>
<defs>
<filter id="filter0_dd_459_8" x="0" y="0" width="1190" height="78" filterUnits="userSpaceOnUse" color-interpolation-filters="sRGB">
<feFlood flood-opacity="0" result="BackgroundImageFix"/>
<feColorMatrix in="SourceAlpha" type="matrix" values="0 0 0 0 0 0 0 0 0 0 0 0 0 0 0 0 0 0 127 0" result="hardAlpha"/>
<feOffset dy="4"/>
<feGaussianBlur stdDeviation="7.5"/>
<feComposite in2="hardAlpha" operator="out"/>
<feColorMatrix type="matrix" values="0 0 0 0 0 0 0 0 0 0 0 0 0 0 0 0 0 0 0.4 0"/>
<feBlend mode="normal" in2="BackgroundImageFix" result="effect1_dropShadow_459_8"/>
<feColorMatrix in="SourceAlpha" type="matrix" values="0 0 0 0 0 0 0 0 0 0 0 0 0 0 0 0 0 0 127 0" result="hardAlpha"/>
<feOffset dy="-4"/>
<feGaussianBlur stdDeviation="7.5"/>
<feComposite in2="hardAlpha" operator="out"/>
<feColorMatrix type="matrix" values="0 0 0 0 0 0 0 0 0 0 0 0 0 0 0 0 0 0 0.4 0"/>
<feBlend mode="normal" in2="effect1_dropShadow_459_8" result="effect2_dropShadow_459_8"/>
<feBlend mode="normal" in="SourceGraphic" in2="effect2_dropShadow_459_8" result="shape"/>
</filter>
<filter id="filter1_f_459_8" x="15" y="19" width="1161" height="40" filterUnits="userSpaceOnUse" color-interpolation-filters="sRGB">
<feFlood flood-opacity="0" result="BackgroundImageFix"/>
<feBlend mode="normal" in="SourceGraphic" in2="BackgroundImageFix" result="shape"/>
<feGaussianBlur stdDeviation="1" result="effect1_foregroundBlur_459_8"/>
</filter>
<linearGradient id="paint0_linear_459_8" x1="1175" y1="39" x2="1100" y2="39" gradientUnits="userSpaceOnUse">
<stop offset="0.125" stop-color="#2E2E2E"/>
<stop offset="1" stop-color="#2E2E2E" stop-opacity="0"/>
</linearGradient>
<linearGradient id="paint1_linear_459_8" x1="15.0002" y1="39" x2="97.0002" y2="39" gradientUnits="userSpaceOnUse">
<stop offset="0.125" stop-color="#2E2E2E"/>
<stop offset="1" stop-color="#2E2E2E" stop-opacity="0"/>
</linearGradient>
</defs>
</svg>
