<svg width="339" height="482" viewBox="0 0 339 482" fill="none" xmlns="http://www.w3.org/2000/svg">
<g filter="url(#filter0_d_630_170)">
<path d="M77.85 447.062C67.06 444.543 58.87 440.008 50.42 431.945C37.68 419.599 33 407.002 33 385.208V373.24H83.7C132.06 373.24 134.79 373.114 139.6 370.72C145.45 367.823 150 360.642 150 354.343C150 348.044 145.45 340.864 139.6 337.966C134.79 335.573 132.06 335.447 83.7 335.447H33V297.654H83.7C132.06 297.654 134.79 297.528 139.6 295.134C145.45 292.236 150 285.056 150 278.757C150 272.458 145.45 265.277 139.6 262.38C134.79 259.986 132.06 259.86 83.7 259.86H33V222.067H83.7C132.06 222.067 134.79 221.941 139.6 219.548C145.45 216.65 150 209.469 150 203.171C150 196.872 145.45 189.691 139.6 186.794C134.79 184.4 132.06 184.274 83.7 184.274H33V146.481H83.7C132.06 146.481 134.79 146.355 139.6 143.961C145.45 141.064 150 133.883 150 127.584C150 121.285 145.45 114.105 139.6 111.207C134.79 108.814 132.06 108.688 83.7 108.688H33V96.7198C33 74.9258 37.68 62.454 50.42 49.9823C59 41.7937 68.36 36.7547 79.54 34.4871C89.16 32.5974 249.84 32.5974 259.46 34.4871C270.64 36.7547 280 41.7937 288.58 49.9823C301.32 62.454 306 74.9258 306 96.7198V108.688H255.17C204.86 108.688 204.21 108.688 199.14 111.459C193.29 114.609 189 121.537 189 127.584C189 133.631 193.29 140.56 199.14 143.709C204.21 146.481 204.86 146.481 255.17 146.481H306V184.274H255.17C204.86 184.274 204.21 184.274 199.14 187.046C186.01 194.226 186.01 212.115 199.14 219.296C204.21 222.067 204.86 222.067 255.17 222.067H306V259.86H255.17C204.86 259.86 204.21 259.86 199.14 262.632C186.01 269.813 186.01 287.701 199.14 294.882C204.21 297.654 204.86 297.654 255.17 297.654H306V335.447H255.17C204.86 335.447 204.21 335.447 199.14 338.218C186.01 345.399 186.01 363.288 199.14 370.468C204.21 373.24 204.86 373.24 255.17 373.24H306V385.208C306 407.002 301.32 419.474 288.58 431.945C280 440.26 269.86 445.551 259.07 447.566C248.8 449.456 86.04 448.952 77.85 447.062Z" fill="url(#paint0_linear_630_170)" fill-opacity="0.5"/>
<g filter="url(#filter1_d_630_170)">
<path d="M95.3071 447.305C86.5724 444.783 79.9424 440.245 73.1019 432.176C62.7886 419.821 59 407.214 59 385.403V373.426H100.043C139.191 373.426 141.401 373.3 145.295 370.905C150.031 368.005 153.714 360.819 153.714 354.516C153.714 348.212 150.031 341.026 145.295 338.126C141.401 335.731 139.191 335.605 100.043 335.605H59V297.783H100.043C139.191 297.783 141.401 297.657 145.295 295.262C150.031 292.362 153.714 285.176 153.714 278.872C153.714 272.569 150.031 265.383 145.295 262.483C141.401 260.087 139.191 259.961 100.043 259.961H59V222.14H100.043C139.191 222.14 141.401 222.014 145.295 219.618C150.031 216.719 153.714 209.533 153.714 203.229C153.714 196.925 150.031 189.739 145.295 186.84C141.401 184.444 139.191 184.318 100.043 184.318H59V146.496H100.043C139.191 146.496 141.401 146.37 145.295 143.975C150.031 141.075 153.714 133.889 153.714 127.586C153.714 121.282 150.031 114.096 145.295 111.196C141.401 108.801 139.191 108.675 100.043 108.675H59V96.698C59 74.8875 62.7886 62.4063 73.1019 49.9252C80.0476 41.7305 87.6248 36.6876 96.6752 34.4183C104.463 32.5272 234.537 32.5272 242.325 34.4183C251.375 36.6876 258.952 41.7305 265.898 49.9252C276.211 62.4063 280 74.8875 280 96.698V108.675H238.852C198.125 108.675 197.599 108.675 193.494 111.448C188.759 114.6 185.286 121.534 185.286 127.586C185.286 133.637 188.759 140.571 193.494 143.723C197.599 146.496 198.125 146.496 238.852 146.496H280V184.318H238.852C198.125 184.318 197.599 184.318 193.494 187.092C182.865 194.278 182.865 212.18 193.494 219.366C197.599 222.14 198.125 222.14 238.852 222.14H280V259.961H238.852C198.125 259.961 197.599 259.961 193.494 262.735C182.865 269.921 182.865 287.823 193.494 295.009C197.599 297.783 198.125 297.783 238.852 297.783H280V335.605H238.852C198.125 335.605 197.599 335.605 193.494 338.378C182.865 345.564 182.865 363.467 193.494 370.653C197.599 373.426 198.125 373.426 238.852 373.426H280V385.403C280 407.214 276.211 419.695 265.898 432.176C258.952 440.497 250.744 445.792 242.009 447.809C233.695 449.7 101.937 449.196 95.3071 447.305Z" fill="url(#paint1_linear_630_170)" fill-opacity="0.5" shape-rendering="crispEdges"/>
</g>
</g>
<defs>
<filter id="filter0_d_630_170" x="0.5" y="0.5" width="338" height="481" filterUnits="userSpaceOnUse" color-interpolation-filters="sRGB">
<feFlood flood-opacity="0" result="BackgroundImageFix"/>
<feColorMatrix in="SourceAlpha" type="matrix" values="0 0 0 0 0 0 0 0 0 0 0 0 0 0 0 0 0 0 127 0" result="hardAlpha"/>
<feOffset/>
<feGaussianBlur stdDeviation="16.25"/>
<feComposite in2="hardAlpha" operator="out"/>
<feColorMatrix type="matrix" values="0 0 0 0 0 0 0 0 0 0 0 0 0 0 0 0 0 0 1 0"/>
<feBlend mode="normal" in2="BackgroundImageFix" result="effect1_dropShadow_630_170"/>
<feBlend mode="normal" in="SourceGraphic" in2="effect1_dropShadow_630_170" result="shape"/>
</filter>
<filter id="filter1_d_630_170" x="46" y="20" width="247" height="442" filterUnits="userSpaceOnUse" color-interpolation-filters="sRGB">
<feFlood flood-opacity="0" result="BackgroundImageFix"/>
<feColorMatrix in="SourceAlpha" type="matrix" values="0 0 0 0 0 0 0 0 0 0 0 0 0 0 0 0 0 0 127 0" result="hardAlpha"/>
<feOffset/>
<feGaussianBlur stdDeviation="6.5"/>
<feComposite in2="hardAlpha" operator="out"/>
<feColorMatrix type="matrix" values="0 0 0 0 0 0 0 0 0 0 0 0 0 0 0 0 0 0 1 0"/>
<feBlend mode="normal" in2="BackgroundImageFix" result="effect1_dropShadow_630_170"/>
<feBlend mode="normal" in="SourceGraphic" in2="effect1_dropShadow_630_170" result="shape"/>
</filter>
<linearGradient id="paint0_linear_630_170" x1="71.0596" y1="15.2215" x2="315.629" y2="111.112" gradientUnits="userSpaceOnUse">
<stop stop-color="#08466B"/>
<stop offset="0.19" stop-color="#37779D"/>
<stop offset="0.43179" stop-color="#71BDEB"/>
<stop offset="0.76" stop-color="#37779D"/>
<stop offset="1" stop-color="#08466B"/>
</linearGradient>
<linearGradient id="paint1_linear_630_170" x1="89.8101" y1="15.1382" x2="297.354" y2="80.9627" gradientUnits="userSpaceOnUse">
<stop stop-color="#08466B"/>
<stop offset="0.19" stop-color="#37779D"/>
<stop offset="0.43179" stop-color="#71BDEB"/>
<stop offset="0.76" stop-color="#37779D"/>
<stop offset="1" stop-color="#08466B"/>
</linearGradient>
</defs>
</svg>
