<svg width="121" height="153" viewBox="0 0 121 153" fill="none" xmlns="http://www.w3.org/2000/svg">
<g opacity="0.8" filter="url(#filter0_ddi_593_526)">
<path d="M48.4304 87.7347C46.9944 87.3895 45.9044 86.7681 44.7798 85.6634C43.0843 83.9718 42.4614 82.2456 42.4614 79.2594V77.6196H49.209C55.6451 77.6196 56.0085 77.6023 56.6486 77.2744C57.4272 76.8774 58.0327 75.8935 58.0327 75.0304C58.0327 74.1673 57.4272 73.1834 56.6486 72.7864C56.0085 72.4585 55.6451 72.4412 49.209 72.4412H42.4614V69.852V67.2628H49.209C55.6451 67.2628 56.0085 67.2456 56.6486 66.9176C57.4272 66.5206 58.0327 65.5367 58.0327 64.6736C58.0327 63.8106 57.4272 62.8267 56.6486 62.4297C56.0085 62.1017 55.6451 62.0844 49.209 62.0844H42.4614V59.4952V56.906H49.209C55.6451 56.906 56.0085 56.8888 56.6486 56.5608C57.4272 56.1638 58.0327 55.1799 58.0327 54.3168C58.0327 53.4538 57.4272 52.4699 56.6486 52.0729C56.0085 51.7449 55.6451 51.7276 49.209 51.7276H42.4614V49.1385V46.5493H49.209C55.6451 46.5493 56.0085 46.532 56.6486 46.204C57.4272 45.807 58.0327 44.8231 58.0327 43.9601C58.0327 43.097 57.4272 42.1131 56.6486 41.7161C56.0085 41.3881 55.6451 41.3709 49.209 41.3709H42.4614V39.731C42.4614 36.7448 43.0843 35.036 44.7798 33.3271C45.9217 32.2051 47.1674 31.5147 48.6553 31.204C49.9357 30.945 71.3202 30.945 72.6005 31.204C74.0885 31.5147 75.3342 32.2051 76.4761 33.3271C78.1716 35.036 78.7945 36.7448 78.7945 39.731V41.3709H72.0296C65.3339 41.3709 65.2474 41.3709 64.5727 41.7506C63.7941 42.1821 63.2232 43.1315 63.2232 43.9601C63.2232 44.7886 63.7941 45.738 64.5727 46.1695C65.2474 46.5493 65.3339 46.5493 72.0296 46.5493H78.7945V49.1385V51.7276H72.0296C65.3339 51.7276 65.2474 51.7276 64.5727 52.1074C62.8252 53.0913 62.8252 55.5424 64.5727 56.5263C65.2474 56.906 65.3339 56.906 72.0296 56.906H78.7945V59.4952V62.0844H72.0296C65.3339 62.0844 65.2474 62.0844 64.5727 62.4642C62.8252 63.4481 62.8252 65.8992 64.5727 66.8831C65.2474 67.2628 65.3339 67.2628 72.0296 67.2628H78.7945V69.852V72.4412H72.0296C65.3339 72.4412 65.2474 72.4412 64.5727 72.821C62.8252 73.8049 62.8252 76.256 64.5727 77.2399C65.2474 77.6196 65.3339 77.6196 72.0296 77.6196H78.7945V79.2594C78.7945 82.2456 78.1716 83.9545 76.4761 85.6634C75.3342 86.8026 73.9847 87.5276 72.5486 87.8038C71.1818 88.0627 49.5204 87.9936 48.4304 87.7347Z" fill="url(#paint0_linear_593_526)" fill-opacity="0.8"/>
<path d="M87.6678 62.4255C87.9792 62.5808 88.4118 62.9433 88.6194 63.2368L89 63.7719V73.3519C89 82.5867 88.9827 82.9837 88.6367 84.3128C87.3391 89.1633 84.6746 92.9262 80.7472 95.4464C77.7541 97.3796 75.0377 98.1909 71.0411 98.329L68.3248 98.4326V106.338V114.261H72.4771C76.318 114.261 76.6987 114.296 77.3215 114.606C78.1001 115.003 78.7056 115.987 78.7056 116.85C78.7056 117.713 78.1001 118.697 77.3215 119.094C76.6641 119.44 76.3353 119.44 60.5391 119.44C44.7429 119.44 44.4142 119.44 43.7567 119.094C42.9781 118.697 42.3726 117.713 42.3726 116.85C42.3726 115.987 42.9781 115.003 43.7567 114.606C44.3796 114.296 44.7602 114.261 48.6011 114.261H52.7535V106.338V98.4326L50.0198 98.329C45.954 98.1909 43.3242 97.3969 40.1926 95.3601C36.4382 92.9262 33.8084 89.1978 32.4589 84.3991C32.1128 83.1736 32.0955 82.6212 32.0263 73.6626C31.9571 63.185 31.9398 63.4267 33.099 62.5981C33.5489 62.2701 33.9122 62.2011 35.4001 62.1666L37.1649 62.0975L37.2341 72.3507C37.286 81.3266 37.3206 82.7075 37.5801 83.5533C39.0507 88.4383 42.7878 91.9423 47.5976 92.9262C49.5873 93.3405 71.4909 93.3405 73.4806 92.9262C77.6503 92.0632 81.3874 88.9906 82.9272 85.1586C83.8442 82.8629 83.8961 82.2587 83.8961 71.7984V62.1321H85.4878C86.6124 62.1321 87.2699 62.2184 87.6678 62.4255Z" fill="url(#paint1_linear_593_526)" fill-opacity="0.8"/>
</g>
<g filter="url(#filter1_ddi_593_526)">
<path opacity="0.9" d="M49.4219 87.7677C48.1176 87.4222 47.1276 86.8003 46.1062 85.6948C44.5662 84.0019 44.0005 82.2745 44.0005 79.286V77.645H50.1291C55.9748 77.645 56.3048 77.6277 56.8862 77.2995C57.5933 76.9022 58.1433 75.9175 58.1433 75.0538C58.1433 74.1901 57.5933 73.2055 56.8862 72.8081C56.3048 72.4799 55.9748 72.4627 50.1291 72.4627H44.0005V69.8715V67.2804H50.1291C55.9748 67.2804 56.3048 67.2631 56.8862 66.9349C57.5933 66.5376 58.1433 65.5529 58.1433 64.6892C58.1433 63.8255 57.5933 62.8409 56.8862 62.4436C56.3048 62.1153 55.9748 62.0981 50.1291 62.0981H44.0005V59.5069V56.9158H50.1291C55.9748 56.9158 56.3048 56.8985 56.8862 56.5703C57.5933 56.173 58.1433 55.1884 58.1433 54.3246C58.1433 53.4609 57.5933 52.4763 56.8862 52.079C56.3048 51.7508 55.9748 51.7335 50.1291 51.7335H44.0005V49.1423V46.5512H50.1291C55.9748 46.5512 56.3048 46.5339 56.8862 46.2057C57.5933 45.8084 58.1433 44.8238 58.1433 43.9601C58.1433 43.0963 57.5933 42.1117 56.8862 41.7144C56.3048 41.3862 55.9748 41.3689 50.1291 41.3689H44.0005V39.7278C44.0005 36.7394 44.5662 35.0292 46.1062 33.3191C47.1433 32.1962 48.2748 31.5053 49.6262 31.1943C50.7891 30.9352 70.2119 30.9352 71.3748 31.1943C72.7262 31.5053 73.8576 32.1962 74.8948 33.3191C76.4348 35.0292 77.0005 36.7394 77.0005 39.7278V41.3689H70.8562C64.7748 41.3689 64.6962 41.3689 64.0833 41.7489C63.3762 42.1808 62.8576 43.1309 62.8576 43.9601C62.8576 44.7892 63.3762 45.7393 64.0833 46.1712C64.6962 46.5512 64.7748 46.5512 70.8562 46.5512H77.0005V49.1423V51.7335H70.8562C64.7748 51.7335 64.6962 51.7335 64.0833 52.1135C62.4962 53.0982 62.4962 55.5511 64.0833 56.5357C64.6962 56.9158 64.7748 56.9158 70.8562 56.9158H77.0005V59.5069V62.0981H70.8562C64.7748 62.0981 64.6962 62.0981 64.0833 62.4781C62.4962 63.4627 62.4962 65.9157 64.0833 66.9003C64.6962 67.2804 64.7748 67.2804 70.8562 67.2804H77.0005V69.8715V72.4627H70.8562C64.7748 72.4627 64.6962 72.4627 64.0833 72.8427C62.4962 73.8273 62.4962 76.2803 64.0833 77.2649C64.6962 77.645 64.7748 77.645 70.8562 77.645H77.0005V79.286C77.0005 82.2745 76.4348 83.9846 74.8948 85.6948C73.8576 86.8349 72.6319 87.5604 71.3276 87.8368C70.0862 88.0959 50.4119 88.0268 49.4219 87.7677Z" fill="url(#paint2_linear_593_526)" fill-opacity="0.8"/>
<path d="M51.4362 87.7677C50.3691 87.4222 49.5591 86.8003 48.7233 85.6948C47.4633 84.0019 47.0005 82.2745 47.0005 79.286V77.645H52.0148C56.7976 77.645 57.0676 77.6277 57.5433 77.2995C58.1219 76.9022 58.5719 75.9175 58.5719 75.0538C58.5719 74.1901 58.1219 73.2055 57.5433 72.8081C57.0676 72.4799 56.7976 72.4627 52.0148 72.4627H47.0005V69.8715V67.2804H52.0148C56.7976 67.2804 57.0676 67.2631 57.5433 66.9349C58.1219 66.5376 58.5719 65.5529 58.5719 64.6892C58.5719 63.8255 58.1219 62.8409 57.5433 62.4436C57.0676 62.1153 56.7976 62.0981 52.0148 62.0981H47.0005V59.5069V56.9158H52.0148C56.7976 56.9158 57.0676 56.8985 57.5433 56.5703C58.1219 56.173 58.5719 55.1884 58.5719 54.3246C58.5719 53.4609 58.1219 52.4763 57.5433 52.079C57.0676 51.7508 56.7976 51.7335 52.0148 51.7335H47.0005V49.1423V46.5512H52.0148C56.7976 46.5512 57.0676 46.5339 57.5433 46.2057C58.1219 45.8084 58.5719 44.8238 58.5719 43.9601C58.5719 43.0963 58.1219 42.1117 57.5433 41.7144C57.0676 41.3862 56.7976 41.3689 52.0148 41.3689H47.0005V39.7278C47.0005 36.7394 47.4633 35.0292 48.7233 33.3191C49.5719 32.1962 50.4976 31.5053 51.6033 31.1943C52.5548 30.9352 68.4462 30.9352 69.3976 31.1943C70.5033 31.5053 71.4291 32.1962 72.2776 33.3191C73.5376 35.0292 74.0005 36.7394 74.0005 39.7278V41.3689H68.9733C63.9976 41.3689 63.9333 41.3689 63.4319 41.7489C62.8533 42.1808 62.4291 43.1309 62.4291 43.9601C62.4291 44.7892 62.8533 45.7393 63.4319 46.1712C63.9333 46.5512 63.9976 46.5512 68.9733 46.5512H74.0005V49.1423V51.7335H68.9733C63.9976 51.7335 63.9333 51.7335 63.4319 52.1135C62.1333 53.0982 62.1333 55.5511 63.4319 56.5357C63.9333 56.9158 63.9976 56.9158 68.9733 56.9158H74.0005V59.5069V62.0981H68.9733C63.9976 62.0981 63.9333 62.0981 63.4319 62.4781C62.1333 63.4627 62.1333 65.9157 63.4319 66.9003C63.9333 67.2804 63.9976 67.2804 68.9733 67.2804H74.0005V69.8715V72.4627H68.9733C63.9976 72.4627 63.9333 72.4627 63.4319 72.8427C62.1333 73.8273 62.1333 76.2803 63.4319 77.2649C63.9333 77.645 63.9976 77.645 68.9733 77.645H74.0005V79.286C74.0005 82.2745 73.5376 83.9846 72.2776 85.6948C71.4291 86.8349 70.4262 87.5604 69.3591 87.8368C68.3433 88.0959 52.2462 88.0268 51.4362 87.7677Z" fill="url(#paint3_linear_593_526)" fill-opacity="0.8"/>
</g>
<defs>
<filter id="filter0_ddi_593_526" x="0.299999" y="0.309765" width="120.4" height="151.83" filterUnits="userSpaceOnUse" color-interpolation-filters="sRGB">
<feFlood flood-opacity="0" result="BackgroundImageFix"/>
<feColorMatrix in="SourceAlpha" type="matrix" values="0 0 0 0 0 0 0 0 0 0 0 0 0 0 0 0 0 0 127 0" result="hardAlpha"/>
<feOffset dy="1"/>
<feGaussianBlur stdDeviation="15.85"/>
<feComposite in2="hardAlpha" operator="out"/>
<feColorMatrix type="matrix" values="0 0 0 0 0 0 0 0 0 0 0 0 0 0 0 0 0 0 0.9 0"/>
<feBlend mode="normal" in2="BackgroundImageFix" result="effect1_dropShadow_593_526"/>
<feColorMatrix in="SourceAlpha" type="matrix" values="0 0 0 0 0 0 0 0 0 0 0 0 0 0 0 0 0 0 127 0" result="hardAlpha"/>
<feOffset dy="2"/>
<feGaussianBlur stdDeviation="0.65"/>
<feComposite in2="hardAlpha" operator="out"/>
<feColorMatrix type="matrix" values="0 0 0 0 0 0 0 0 0 0 0 0 0 0 0 0 0 0 0.8 0"/>
<feBlend mode="normal" in2="effect1_dropShadow_593_526" result="effect2_dropShadow_593_526"/>
<feBlend mode="normal" in="SourceGraphic" in2="effect2_dropShadow_593_526" result="shape"/>
<feColorMatrix in="SourceAlpha" type="matrix" values="0 0 0 0 0 0 0 0 0 0 0 0 0 0 0 0 0 0 127 0" result="hardAlpha"/>
<feOffset dy="1"/>
<feGaussianBlur stdDeviation="0.5"/>
<feComposite in2="hardAlpha" operator="arithmetic" k2="-1" k3="1"/>
<feColorMatrix type="matrix" values="0 0 0 0 0.8375 0 0 0 0 0.939461 0 0 0 0 1 0 0 0 1 0"/>
<feBlend mode="normal" in2="shape" result="effect3_innerShadow_593_526"/>
</filter>
<filter id="filter1_ddi_593_526" x="12.3005" y="0.299999" width="96.4" height="120.4" filterUnits="userSpaceOnUse" color-interpolation-filters="sRGB">
<feFlood flood-opacity="0" result="BackgroundImageFix"/>
<feColorMatrix in="SourceAlpha" type="matrix" values="0 0 0 0 0 0 0 0 0 0 0 0 0 0 0 0 0 0 127 0" result="hardAlpha"/>
<feOffset dy="1"/>
<feGaussianBlur stdDeviation="15.85"/>
<feComposite in2="hardAlpha" operator="out"/>
<feColorMatrix type="matrix" values="0 0 0 0 0 0 0 0 0 0 0 0 0 0 0 0 0 0 0.9 0"/>
<feBlend mode="normal" in2="BackgroundImageFix" result="effect1_dropShadow_593_526"/>
<feColorMatrix in="SourceAlpha" type="matrix" values="0 0 0 0 0 0 0 0 0 0 0 0 0 0 0 0 0 0 127 0" result="hardAlpha"/>
<feOffset dy="2"/>
<feGaussianBlur stdDeviation="0.65"/>
<feComposite in2="hardAlpha" operator="out"/>
<feColorMatrix type="matrix" values="0 0 0 0 0 0 0 0 0 0 0 0 0 0 0 0 0 0 0.8 0"/>
<feBlend mode="normal" in2="effect1_dropShadow_593_526" result="effect2_dropShadow_593_526"/>
<feBlend mode="normal" in="SourceGraphic" in2="effect2_dropShadow_593_526" result="shape"/>
<feColorMatrix in="SourceAlpha" type="matrix" values="0 0 0 0 0 0 0 0 0 0 0 0 0 0 0 0 0 0 127 0" result="hardAlpha"/>
<feOffset dy="1"/>
<feGaussianBlur stdDeviation="0.5"/>
<feComposite in2="hardAlpha" operator="arithmetic" k2="-1" k3="1"/>
<feColorMatrix type="matrix" values="0 0 0 0 0.8375 0 0 0 0 0.939461 0 0 0 0 1 0 0 0 1 0"/>
<feBlend mode="normal" in2="shape" result="effect3_innerShadow_593_526"/>
</filter>
<linearGradient id="paint0_linear_593_526" x1="47.5267" y1="28.5642" x2="80.3231" y2="41.0541" gradientUnits="userSpaceOnUse">
<stop stop-color="#08466B"/>
<stop offset="0.19" stop-color="#37779D"/>
<stop offset="0.43179" stop-color="#71BDEB"/>
<stop offset="0.76" stop-color="#37779D"/>
<stop offset="1" stop-color="#08466B"/>
</linearGradient>
<linearGradient id="paint1_linear_593_526" x1="85.7937" y1="127.181" x2="22.8654" y2="113.444" gradientUnits="userSpaceOnUse">
<stop stop-color="#08466B"/>
<stop offset="0.35" stop-color="#37779D"/>
<stop offset="0.527344" stop-color="#71BDEB"/>
<stop offset="0.635" stop-color="#37779D"/>
<stop offset="1" stop-color="#08466B"/>
</linearGradient>
<linearGradient id="paint2_linear_593_526" x1="48.6011" y1="28.5526" x2="79.0693" y2="39.0835" gradientUnits="userSpaceOnUse">
<stop stop-color="#08466B"/>
<stop offset="0.19" stop-color="#37779D"/>
<stop offset="0.43179" stop-color="#71BDEB"/>
<stop offset="0.76" stop-color="#37779D"/>
<stop offset="1" stop-color="#08466B"/>
</linearGradient>
<linearGradient id="paint3_linear_593_526" x1="40.7971" y1="19.3179" x2="78.1423" y2="19.0985" gradientUnits="userSpaceOnUse">
<stop stop-color="#08466B"/>
<stop offset="0.19" stop-color="#37779D"/>
<stop offset="0.5039" stop-color="#71BDEB"/>
<stop offset="0.76" stop-color="#37779D"/>
<stop offset="1" stop-color="#08466B"/>
</linearGradient>
</defs>
</svg>
