<svg width="52" height="77" viewBox="0 0 52 77" fill="none" xmlns="http://www.w3.org/2000/svg">
<g filter="url(#filter0_d_630_146)">
<path d="M11.9 68.7019C10.24 68.3143 8.98 67.6166 7.68 66.3762C5.72 64.4768 5 62.5387 5 59.1858V57.3446H12.8C20.24 57.3446 20.66 57.3252 21.4 56.957C22.3 56.5112 23 55.4065 23 54.4374C23 53.4684 22.3 52.3636 21.4 51.9179C20.66 51.5496 20.24 51.5303 12.8 51.5303H5V48.6231V45.7159H12.8C20.24 45.7159 20.66 45.6965 21.4 45.3283C22.3 44.8825 23 43.7778 23 42.8088C23 41.8397 22.3 40.735 21.4 40.2892C20.66 39.921 20.24 39.9016 12.8 39.9016H5V36.9944V34.0873H12.8C20.24 34.0873 20.66 34.0679 21.4 33.6996C22.3 33.2539 23 32.1491 23 31.1801C23 30.211 22.3 29.1063 21.4 28.6605C20.66 28.2923 20.24 28.2729 12.8 28.2729H5V25.3658V22.4586H12.8C20.24 22.4586 20.66 22.4392 21.4 22.071C22.3 21.6252 23 20.5205 23 19.5514C23 18.5824 22.3 17.4776 21.4 17.0319C20.66 16.6636 20.24 16.6443 12.8 16.6443H5V14.8031C5 11.4501 5.72 9.53139 7.68 7.61266C9 6.35288 10.44 5.57764 12.16 5.22878C13.64 4.93806 38.36 4.93806 39.84 5.22878C41.56 5.57764 43 6.35288 44.32 7.61266C46.28 9.53139 47 11.4501 47 14.8031V16.6443H39.18C31.44 16.6443 31.34 16.6443 30.56 17.0706C29.66 17.5552 29 18.6211 29 19.5514C29 20.4817 29.66 21.5477 30.56 22.0322C31.34 22.4586 31.44 22.4586 39.18 22.4586H47V25.3658V28.2729H39.18C31.44 28.2729 31.34 28.2729 30.56 28.6993C28.54 29.804 28.54 32.5562 30.56 33.6609C31.34 34.0873 31.44 34.0873 39.18 34.0873H47V36.9944V39.9016H39.18C31.44 39.9016 31.34 39.9016 30.56 40.328C28.54 41.4327 28.54 44.1848 30.56 45.2895C31.34 45.7159 31.44 45.7159 39.18 45.7159H47V48.6231V51.5303H39.18C31.44 51.5303 31.34 51.5303 30.56 51.9566C28.54 53.0614 28.54 55.8135 30.56 56.9182C31.34 57.3446 31.44 57.3446 39.18 57.3446H47V59.1858C47 62.5387 46.28 64.4575 44.32 66.3762C43 67.6553 41.44 68.4694 39.78 68.7794C38.2 69.0702 13.16 68.9926 11.9 68.7019Z" fill="url(#paint0_linear_630_146)" fill-opacity="0.5"/>
<g filter="url(#filter1_dd_630_146)">
<path d="M14.5857 68.7392C13.2419 68.3513 12.2219 67.653 11.1695 66.4117C9.58286 64.5109 9 62.5713 9 59.2159V57.3733H15.3143C21.3371 57.3733 21.6771 57.3539 22.2762 56.9854C23.0048 56.5393 23.5714 55.4337 23.5714 54.4639C23.5714 53.4941 23.0048 52.3886 22.2762 51.9425C21.6771 51.574 21.3371 51.5546 15.3143 51.5546H9V45.7359H15.3143C21.3371 45.7359 21.6771 45.7165 22.2762 45.3479C23.0048 44.9018 23.5714 43.7963 23.5714 42.8265C23.5714 41.8567 23.0048 40.7512 22.2762 40.3051C21.6771 39.9365 21.3371 39.9171 15.3143 39.9171H9V34.0984H15.3143C21.3371 34.0984 21.6771 34.079 22.2762 33.7105C23.0048 33.2644 23.5714 32.1589 23.5714 31.1891C23.5714 30.2193 23.0048 29.1137 22.2762 28.6676C21.6771 28.2991 21.3371 28.2797 15.3143 28.2797H9V22.461H15.3143C21.3371 22.461 21.6771 22.4416 22.2762 22.0731C23.0048 21.627 23.5714 20.5214 23.5714 19.5516C23.5714 18.5819 23.0048 17.4763 22.2762 17.0302C21.6771 16.6617 21.3371 16.6423 15.3143 16.6423H9V14.7997C9 11.4442 9.58286 9.52405 11.1695 7.60387C12.2381 6.34315 13.4038 5.56732 14.7962 5.2182C15.9943 4.92727 36.0057 4.92727 37.2038 5.2182C38.5962 5.56732 39.7619 6.34315 40.8305 7.60387C42.4171 9.52405 43 11.4442 43 14.7997V16.6423H36.6695C30.4038 16.6423 30.3229 16.6423 29.6914 17.069C28.9629 17.5539 28.4286 18.6206 28.4286 19.5516C28.4286 20.4826 28.9629 21.5494 29.6914 22.0343C30.3229 22.461 30.4038 22.461 36.6695 22.461H43V28.2797H36.6695C30.4038 28.2797 30.3229 28.2797 29.6914 28.7064C28.0562 29.812 28.0562 32.5662 29.6914 33.6717C30.3229 34.0984 30.4038 34.0984 36.6695 34.0984H43V39.9171H36.6695C30.4038 39.9171 30.3229 39.9171 29.6914 40.3438C28.0562 41.4494 28.0562 44.2036 29.6914 45.3091C30.3229 45.7359 30.4038 45.7359 36.6695 45.7359H43V51.5546H36.6695C30.4038 51.5546 30.3229 51.5546 29.6914 51.9813C28.0562 53.0868 28.0562 55.841 29.6914 56.9466C30.3229 57.3733 30.4038 57.3733 36.6695 57.3733H43V59.2159C43 62.5713 42.4171 64.4915 40.8305 66.4117C39.7619 67.6918 38.499 68.5064 37.1552 68.8168C35.8762 69.1077 15.6057 69.0301 14.5857 68.7392Z" fill="url(#paint1_linear_630_146)" fill-opacity="0.5" shape-rendering="crispEdges"/>
</g>
</g>
<defs>
<filter id="filter0_d_630_146" x="0" y="0" width="52" height="74" filterUnits="userSpaceOnUse" color-interpolation-filters="sRGB">
<feFlood flood-opacity="0" result="BackgroundImageFix"/>
<feColorMatrix in="SourceAlpha" type="matrix" values="0 0 0 0 0 0 0 0 0 0 0 0 0 0 0 0 0 0 127 0" result="hardAlpha"/>
<feOffset/>
<feGaussianBlur stdDeviation="2.5"/>
<feComposite in2="hardAlpha" operator="out"/>
<feColorMatrix type="matrix" values="0 0 0 0 0 0 0 0 0 0 0 0 0 0 0 0 0 0 1 0"/>
<feBlend mode="normal" in2="BackgroundImageFix" result="effect1_dropShadow_630_146"/>
<feBlend mode="normal" in="SourceGraphic" in2="effect1_dropShadow_630_146" result="shape"/>
</filter>
<filter id="filter1_dd_630_146" x="5" y="3" width="42" height="74" filterUnits="userSpaceOnUse" color-interpolation-filters="sRGB">
<feFlood flood-opacity="0" result="BackgroundImageFix"/>
<feColorMatrix in="SourceAlpha" type="matrix" values="0 0 0 0 0 0 0 0 0 0 0 0 0 0 0 0 0 0 127 0" result="hardAlpha"/>
<feOffset/>
<feGaussianBlur stdDeviation="1"/>
<feComposite in2="hardAlpha" operator="out"/>
<feColorMatrix type="matrix" values="0 0 0 0 0 0 0 0 0 0 0 0 0 0 0 0 0 0 1 0"/>
<feBlend mode="normal" in2="BackgroundImageFix" result="effect1_dropShadow_630_146"/>
<feColorMatrix in="SourceAlpha" type="matrix" values="0 0 0 0 0 0 0 0 0 0 0 0 0 0 0 0 0 0 127 0" result="hardAlpha"/>
<feOffset dy="4"/>
<feGaussianBlur stdDeviation="2"/>
<feComposite in2="hardAlpha" operator="out"/>
<feColorMatrix type="matrix" values="0 0 0 0 0 0 0 0 0 0 0 0 0 0 0 0 0 0 0.25 0"/>
<feBlend mode="normal" in2="effect1_dropShadow_630_146" result="effect2_dropShadow_630_146"/>
<feBlend mode="normal" in="SourceGraphic" in2="effect2_dropShadow_630_146" result="shape"/>
</filter>
<linearGradient id="paint0_linear_630_146" x1="10.8553" y1="2.26485" x2="48.4813" y2="17.0173" gradientUnits="userSpaceOnUse">
<stop stop-color="#08466B"/>
<stop offset="0.19" stop-color="#37779D"/>
<stop offset="0.43179" stop-color="#71BDEB"/>
<stop offset="0.76" stop-color="#37779D"/>
<stop offset="1" stop-color="#08466B"/>
</linearGradient>
<linearGradient id="paint1_linear_630_146" x1="13.74" y1="2.25203" x2="45.6698" y2="12.3789" gradientUnits="userSpaceOnUse">
<stop stop-color="#08466B"/>
<stop offset="0.19" stop-color="#37779D"/>
<stop offset="0.43179" stop-color="#71BDEB"/>
<stop offset="0.76" stop-color="#37779D"/>
<stop offset="1" stop-color="#08466B"/>
</linearGradient>
</defs>
</svg>
