<svg width="65" height="76" viewBox="0 0 65 76" fill="none" xmlns="http://www.w3.org/2000/svg">
<g opacity="0.5">
<path d="M9.92471 50.1166L11.8544 50.7533L19.5471 50.0718L9.92471 50.1166ZM17.6372 49.4303L9.92471 50.1166L19.5471 50.0718L17.6372 49.4303ZM9.88154 64.3897L11.8164 64.9782L19.5292 64.3483L9.88154 64.3897ZM25.4138 14.5409L27.2917 15.3025L44.1784 13.5284L25.4138 14.5409ZM25.4138 14.5409L25.4093 40.1487L27.2917 15.3025L25.4138 14.5409ZM25.4093 40.1487L27.2961 40.8242L27.2917 15.3025L25.4093 40.1487ZM7.9815 49.4754L9.92471 50.1166L17.6372 49.4303L7.9815 49.4754ZM17.6142 63.7554L9.88154 64.3897L19.5292 64.3483L17.6142 63.7554ZM15.7138 48.7843L7.9815 49.4754L17.6372 49.4303L15.7138 48.7843ZM7.93306 63.7971L9.88154 64.3897L17.6142 63.7554L7.93306 63.7971ZM23.5227 13.7739L25.4138 14.5409L42.3448 12.7543L23.5227 13.7739ZM23.5227 13.7739L23.5092 39.4685L25.4138 14.5409L23.5227 13.7739ZM42.3448 12.7543L25.4138 14.5409L44.1784 13.5284L42.3448 12.7543ZM23.5092 39.4685L25.4093 40.1487L25.4138 14.5409L23.5092 39.4685ZM25.4069 54.4806L27.2986 55.1075L27.2976 49.3851L25.4069 54.4806ZM6.0246 48.8297L7.9815 49.4754L15.7138 48.7843L6.0246 48.8297ZM25.4078 48.7388L25.4069 54.4806L27.2976 49.3851L25.4078 48.7388ZM42.3448 12.7543L44.1784 13.5284L45.777 13.4777L42.3448 12.7543ZM17.5957 75.27L19.5149 75.8237L27.3022 75.231L17.5957 75.27ZM15.6857 63.1582L7.93306 63.7971L17.6142 63.7554L15.6857 63.1582ZM25.4078 48.7388L27.2976 49.3851L44.292 47.8795L25.4078 48.7388ZM43.9476 12.7027L45.777 13.4777L47.3143 13.6579L43.9476 12.7027ZM13.7769 48.1337L6.0246 48.8297L15.7138 48.7843L13.7769 48.1337ZM5.97081 63.2003L7.93306 63.7971L15.6857 63.1582L5.97081 63.2003ZM21.6182 13.0015L23.5227 13.7739L40.4981 11.9746L21.6182 13.0015ZM21.6182 13.0015L21.5956 38.7835L23.5227 13.7739L21.6182 13.0015ZM43.9476 12.7027L42.3448 12.7543L45.777 13.4777L43.9476 12.7027ZM45.4888 12.883L47.3143 13.6579L48.7757 14.0558L45.4888 12.883ZM40.4981 11.9746L23.5227 13.7739L42.3448 12.7543L40.4981 11.9746ZM21.5956 38.7835L23.5092 39.4685L23.5227 13.7739L21.5956 38.7835ZM25.4034 74.6731L27.3022 75.231L27.3002 63.7136L25.4034 74.6731ZM23.5017 53.8493L25.4069 54.4806L25.4078 48.7388L23.5017 53.8493ZM4.05386 48.1794L6.0246 48.8297L13.7769 48.1337L4.05386 48.1794ZM45.4888 12.883L43.9476 12.7027L47.3143 13.6579L45.4888 12.883ZM25.4054 63.1162L25.4034 74.6731L27.3002 63.7136L25.4054 63.1162ZM25.4034 74.6731L17.5957 75.27L27.3022 75.231L25.4034 74.6731ZM23.5047 48.0879L23.5017 53.8493L25.4078 48.7388L23.5047 48.0879ZM46.9539 13.2817L45.4888 12.883L48.7757 14.0558L46.9539 13.2817ZM40.4981 11.9746L42.3448 12.7543L43.9476 12.7027L40.4981 11.9746ZM15.663 74.7123L17.5957 75.27L25.4034 74.6731L15.663 74.7123ZM13.7435 62.5569L5.97081 63.2003L15.6857 63.1582L13.7435 62.5569ZM25.4054 63.1162L27.3002 63.7136L48.3119 61.9975L25.4054 63.1162ZM23.5047 48.0879L25.4078 48.7388L42.447 47.2225L23.5047 48.0879ZM54.4217 7.3611L56.2219 8.15819L54.104 6.84586L54.4217 7.3611ZM42.1051 11.9223L43.9476 12.7027L45.4888 12.883L42.1051 11.9223ZM42.447 47.2225L25.4078 48.7388L44.292 47.8795L42.447 47.2225ZM11.8262 47.4785L4.05386 48.1794L13.7769 48.1337L11.8262 47.4785ZM3.99465 62.5992L5.97081 63.2003L13.7435 62.5569L3.99465 62.5992ZM19.7003 12.2237L21.6182 13.0015L38.6383 11.1895L19.7003 12.2237ZM19.7003 12.2237L19.6684 38.0936L21.6182 13.0015L19.7003 12.2237ZM42.1051 11.9223L40.4981 11.9746L43.9476 12.7027L42.1051 11.9223ZM52.2987 6.04516L54.4217 7.3611L54.104 6.84586L52.2987 6.04516ZM43.6503 12.1026L45.4888 12.883L46.9539 13.2817L43.6503 12.1026ZM38.6383 11.1895L21.6182 13.0015L40.4981 11.9746L38.6383 11.1895ZM19.6684 38.0936L21.5956 38.7835L21.6182 13.0015L19.6684 38.0936ZM23.4911 74.1112L25.4034 74.6731L25.4054 63.1162L23.4911 74.1112ZM56.3465 8.9755L58.142 9.76786L56.2219 8.15819L56.3465 8.9755ZM21.583 53.2136L23.5017 53.8493L23.5047 48.0879L21.583 53.2136ZM2.06914 47.5246L4.05386 48.1794L11.8262 47.4785L2.06914 47.5246ZM43.6503 12.1026L42.1051 11.9223L45.4888 12.883L43.6503 12.1026ZM23.4971 62.5145L23.4911 74.1112L25.4054 63.1162L23.4971 62.5145ZM23.4911 74.1112L15.663 74.7123L25.4034 74.6731L23.4911 74.1112ZM54.4217 7.3611L56.3465 8.9755L56.2219 8.15819L54.4217 7.3611ZM21.588 47.4323L21.583 53.2136L23.5047 48.0879L21.588 47.4323ZM42.447 47.2225L44.292 47.8795L46.9739 47.444L42.447 47.2225ZM45.1192 12.502L43.6503 12.1026L46.9539 13.2817L45.1192 12.502ZM58.0478 10.8659L59.8395 11.6525L58.142 9.76786L58.0478 10.8659ZM38.6383 11.1895L40.4981 11.9746L42.1051 11.9223L38.6383 11.1895ZM13.7166 74.1507L15.663 74.7123L23.4911 74.1112L13.7166 74.1507ZM11.7874 61.9512L3.99465 62.5992L13.7435 62.5569L11.7874 61.9512ZM23.4971 62.5145L25.4054 63.1162L46.4728 61.3879L23.4971 62.5145ZM56.3465 8.9755L58.0478 10.8659L58.142 9.76786L56.3465 8.9755ZM21.588 47.4323L23.5047 48.0879L40.5889 46.5608L21.588 47.4323ZM45.1362 46.7846L46.9739 47.444L49.5519 46.6384L45.1362 46.7846ZM52.6087 6.55835L54.4217 7.3611L52.2987 6.04516L52.6087 6.55835ZM40.2496 11.1364L42.1051 11.9223L43.6503 12.1026L40.2496 11.1364ZM59.5003 13.0096L61.2888 13.7894L59.8395 11.6525L59.5003 13.0096ZM40.5889 46.5608L23.5047 48.0879L42.447 47.2225L40.5889 46.5608ZM45.1362 46.7846L42.447 47.2225L46.9739 47.444L45.1362 46.7846ZM9.86155 46.8186L2.06914 47.5246L11.8262 47.4785L9.86155 46.8186ZM2.00443 61.9939L3.99465 62.5992L11.7874 61.9512L2.00443 61.9939ZM17.7687 11.4403L19.7003 12.2237L36.7653 10.3987L17.7687 11.4403ZM17.7687 11.4403L17.7274 37.3987L19.7003 12.2237L17.7687 11.4403ZM46.4728 61.3879L25.4054 63.1162L48.3119 61.9975L46.4728 61.3879ZM40.2496 11.1364L38.6383 11.1895L42.1051 11.9223L40.2496 11.1364ZM50.4805 5.23876L52.6087 6.55835L52.2987 6.04516L50.4805 5.23876ZM41.7988 11.3166L43.6503 12.1026L45.1192 12.502L41.7988 11.3166ZM58.0478 10.8659L59.5003 13.0096L59.8395 11.6525L58.0478 10.8659ZM47.7213 45.9754L49.5519 46.6384L52.0008 45.4899L47.7213 45.9754ZM36.7653 10.3987L19.7003 12.2237L38.6383 11.1895L36.7653 10.3987ZM17.7274 37.3987L19.6684 38.0936L19.7003 12.2237L17.7274 37.3987ZM60.6787 15.3833L62.4649 16.1555L61.2888 13.7894L60.6787 15.3833ZM21.5651 73.5453L23.4911 74.1112L23.4971 62.5145L21.5651 73.5453ZM54.5381 8.17749L56.3465 8.9755L54.4217 7.3611L54.5381 8.17749ZM19.6506 52.5733L21.583 53.2136L21.588 47.4323L19.6506 52.5733ZM47.7213 45.9754L45.1362 46.7846L49.5519 46.6384L47.7213 45.9754ZM0.070295 46.865L2.06914 47.5246L9.86155 46.8186L0.070295 46.865ZM41.7988 11.3166L40.2496 11.1364L43.6503 12.1026L41.7988 11.3166ZM21.5753 61.9086L21.5651 73.5453L23.4971 62.5145L21.5753 61.9086ZM21.5651 73.5453L13.7166 74.1507L23.4911 74.1112L21.5651 73.5453ZM50.1771 44.8221L52.0008 45.4899L54.2956 44.026L50.1771 44.8221ZM59.5003 13.0096L60.6787 15.3833L61.2888 13.7894L59.5003 13.0096ZM52.6087 6.55835L54.5381 8.17749L54.4217 7.3611L52.6087 6.55835ZM61.5575 17.9637L63.3422 18.7274L62.4649 16.1555L61.5575 17.9637ZM19.6577 46.7721L19.6506 52.5733L21.588 47.4323L19.6577 46.7721ZM40.5889 46.5608L42.447 47.2225L45.1362 46.7846L40.5889 46.5608ZM46.4728 61.3879L48.3119 61.9975L48.2768 53.3069L46.4728 61.3879ZM43.2714 11.7169L41.7988 11.3166L45.1192 12.502L43.2714 11.7169Z" fill="url(#paint0_linear_153_299)"/>
<path d="M15.8234 10.6513L8.03008 2.8998L7.91253 37.4476L15.8234 10.6513Z" fill="url(#paint1_linear_153_299)"/>
<path d="M50.1771 44.8221L47.7213 45.9754L52.0008 45.4899L50.1771 44.8221ZM56.2433 10.0737L58.0478 10.8659L56.3465 8.9755L56.2433 10.0737ZM52.4784 43.3524L54.2956 44.026L56.411 42.2748L52.4784 43.3524ZM36.7653 10.3987L38.6383 11.1895L40.2496 11.1364L36.7653 10.3987ZM62.1113 20.7268L63.8953 21.4813L63.3422 18.7274L62.1113 20.7268ZM11.7563 73.5851L13.7166 74.1507L21.5651 73.5453L11.7563 73.5851ZM46.4405 52.6673L46.4728 61.3879L48.2768 53.3069L46.4405 52.6673ZM60.6787 15.3833L61.5575 17.9637L62.4649 16.1555L60.6787 15.3833ZM9.81744 61.3413L2.00443 61.9939L11.7874 61.9512L9.81744 61.3413ZM21.5753 61.9086L23.4971 62.5145L44.6205 60.7739L21.5753 61.9086Z" fill="url(#paint2_linear_153_299)"/>
<path d="M0.112293 38.1906L0.070295 46.865L7.88291 46.154L0.112293 38.1906Z" fill="url(#paint3_linear_153_299)"/>
<path d="M54.5381 8.17749L56.2433 10.0737L56.3465 8.9755L54.5381 8.17749ZM52.4784 43.3524L50.1771 44.8221L54.2956 44.026L52.4784 43.3524ZM54.6001 41.5944L56.411 42.2748L58.3219 40.2645L54.6001 41.5944ZM19.6577 46.7721L21.588 47.4323L38.7174 45.8943L19.6577 46.7721ZM43.2853 46.1205L45.1362 46.7846L47.7213 45.9754L43.2853 46.1205ZM62.3148 23.6482L64.0992 24.3928L63.8953 21.4813L62.3148 23.6482ZM50.7828 5.74985L52.6087 6.55835L50.4805 5.23876L50.7828 5.74985ZM38.3808 10.3448L40.2496 11.1364L41.7988 11.3166L38.3808 10.3448ZM57.699 12.2241L59.5003 13.0096L58.0478 10.8659L57.699 12.2241ZM38.7174 45.8943L21.588 47.4323L40.5889 46.5608L38.7174 45.8943ZM61.5575 17.9637L62.1113 20.7268L63.3422 18.7274L61.5575 17.9637ZM43.2853 46.1205L40.5889 46.5608L45.1362 46.7846L43.2853 46.1205ZM7.88291 46.154L0.070295 46.865L9.86155 46.8186L7.88291 46.154ZM56.5168 39.5766L58.3219 40.2645L60.0033 38.024L56.5168 39.5766Z" fill="url(#paint4_linear_153_299)"/>
<path d="M7.91253 37.4476L0.112293 38.1906L7.88291 46.154L7.91253 37.4476Z" fill="url(#paint5_linear_153_299)"/>
<path d="M62.1503 26.6095L63.9361 27.3439L64.0992 24.3928L62.1503 26.6095ZM0 61.3842L2.00443 61.9939L9.81744 61.3413L0 61.3842ZM15.8234 10.6513L17.7687 11.4403L34.8788 9.6023L15.8234 10.6513ZM54.6001 41.5944L52.4784 43.3524L56.411 42.2748L54.6001 41.5944ZM15.8234 10.6513L15.7726 36.6989L17.7687 11.4403L15.8234 10.6513ZM44.6205 60.7739L23.4971 62.5145L46.4728 61.3879L44.6205 60.7739ZM38.3808 10.3448L36.7653 10.3987L40.2496 11.1364L38.3808 10.3448ZM58.2034 37.3278L60.0033 38.024L61.43 35.5822L58.2034 37.3278ZM48.6494 4.42661L50.7828 5.74985L50.4805 5.23876L48.6494 4.42661ZM39.934 10.5251L41.7988 11.3166L43.2714 11.7169L39.934 10.5251ZM61.6327 29.4881L63.4208 30.2124L63.9361 27.3439L61.6327 29.4881ZM56.2433 10.0737L57.699 12.2241L58.0478 10.8659L56.2433 10.0737ZM59.6348 34.8771L61.43 35.5822L62.5774 32.9684L59.6348 34.8771ZM45.8775 45.3077L47.7213 45.9754L50.1771 44.8221L45.8775 45.3077ZM34.8788 9.6023L17.7687 11.4403L36.7653 10.3987L34.8788 9.6023ZM62.1113 20.7268L62.3148 23.6482L63.8953 21.4813L62.1113 20.7268ZM60.7861 32.2539L62.5774 32.9684L63.4208 30.2124L60.7861 32.2539ZM15.7726 36.6989L17.7274 37.3987L17.7687 11.4403L15.7726 36.6989ZM58.8798 14.6056L60.6787 15.3833L59.5003 13.0096L58.8798 14.6056Z" fill="url(#paint6_linear_153_299)"/>
<path d="M8.03008 2.8998L15.8234 10.6513L32.9788 8.80015L8.03008 2.8998Z" fill="url(#paint7_linear_153_299)"/>
<path d="M19.6254 72.9754L21.5651 73.5453L21.5753 61.9086L19.6254 72.9754ZM56.5168 39.5766L54.6001 41.5944L58.3219 40.2645L56.5168 39.5766ZM52.7167 7.37377L54.5381 8.17749L52.6087 6.55835L52.7167 7.37377ZM17.7043 51.9284L19.6506 52.5733L19.6577 46.7721L17.7043 51.9284ZM45.8775 45.3077L43.2853 46.1205L47.7213 45.9754L45.8775 45.3077ZM39.934 10.5251L38.3808 10.3448L41.7988 11.3166L39.934 10.5251ZM62.3148 23.6482L62.1503 26.6095L64.0992 24.3928L62.3148 23.6482ZM19.6398 61.2983L19.6254 72.9754L21.5753 61.9086L19.6398 61.2983ZM58.2034 37.3278L56.5168 39.5766L60.0033 38.024L58.2034 37.3278ZM19.6254 72.9754L11.7563 73.5851L21.5651 73.5453L19.6254 72.9754ZM48.3403 44.1496L50.1771 44.8221L52.4784 43.3524L48.3403 44.1496ZM62.1503 26.6095L61.6327 29.4881L63.9361 27.3439L62.1503 26.6095ZM57.699 12.2241L58.8798 14.6056L59.5003 13.0096L57.699 12.2241ZM59.6348 34.8771L58.2034 37.3278L61.43 35.5822L59.6348 34.8771ZM50.7828 5.74985L52.7167 7.37377L52.6087 6.55835L50.7828 5.74985ZM59.7601 17.1945L61.5575 17.9637L60.6787 15.3833L59.7601 17.1945Z" fill="url(#paint8_linear_153_299)"/>
<path d="M15.7726 36.6989L15.8234 10.6513L7.91253 37.4476L15.7726 36.6989Z" fill="url(#paint9_linear_153_299)"/>
<path d="M61.6327 29.4881L60.7861 32.2539L63.4208 30.2124L61.6327 29.4881ZM60.7861 32.2539L59.6348 34.8771L62.5774 32.9684L60.7861 32.2539ZM17.7136 46.1072L17.7043 51.9284L19.6577 46.7721L17.7136 46.1072ZM38.7174 45.8943L40.5889 46.5608L43.2853 46.1205L38.7174 45.8943ZM44.6205 60.7739L46.4728 61.3879L46.4405 52.6673L44.6205 60.7739ZM41.4104 10.9261L39.934 10.5251L43.2714 11.7169L41.4104 10.9261Z" fill="url(#paint10_linear_153_299)"/>
<path d="M0.0422233 52.6634L0 61.3842L7.83332 60.7269L0.0422233 52.6634Z" fill="url(#paint11_linear_153_299)"/>
<path d="M48.3403 44.1496L45.8775 45.3077L50.1771 44.8221L48.3403 44.1496ZM54.4259 9.27581L56.2433 10.0737L54.5381 8.17749L54.4259 9.27581ZM50.6483 42.674L52.4784 43.3524L54.6001 41.5944L50.6483 42.674ZM34.8788 9.6023L36.7653 10.3987L38.3808 10.3448L34.8788 9.6023ZM60.3145 19.9668L62.1113 20.7268L61.5575 17.9637L60.3145 19.9668ZM9.78198 73.0155L11.7563 73.5851L19.6254 72.9754L9.78198 73.0155ZM44.5911 52.0231L44.6205 60.7739L46.4405 52.6673L44.5911 52.0231ZM58.8798 14.6056L59.7601 17.1945L60.6787 15.3833L58.8798 14.6056Z" fill="url(#paint12_linear_153_299)"/>
<path d="M15.7726 36.6989L7.91253 37.4476L7.88291 46.154L15.7726 36.6989Z" fill="url(#paint13_linear_153_299)"/>
<path d="M7.83332 60.7269L0 61.3842L9.81744 61.3413L7.83332 60.7269Z" fill="url(#paint14_linear_153_299)"/>
<path d="M7.8631 51.9738L0.0422233 52.6634L7.83332 60.7269L7.8631 51.9738Z" fill="url(#paint15_linear_153_299)"/>
<path d="M19.6398 61.2983L21.5753 61.9086L42.7549 60.1555L19.6398 61.2983ZM52.7167 7.37377L54.4259 9.27581L54.5381 8.17749L52.7167 7.37377Z" fill="url(#paint16_linear_153_299)"/>
<path d="M35.6725 0L32.9681 0.104387L8.03008 2.8998L35.6725 0Z" fill="url(#paint17_linear_153_299)"/>
<path d="M50.6483 42.674L48.3403 44.1496L52.4784 43.3524L50.6483 42.674ZM52.7762 40.9092L54.6001 41.5944L56.5168 39.5766L52.7762 40.9092ZM17.7136 46.1072L19.6577 46.7721L36.8326 45.2231L17.7136 46.1072ZM41.4212 45.4517L43.2853 46.1205L45.8775 45.3077L41.4212 45.4517ZM60.5175 22.8983L62.3148 23.6482L62.1113 20.7268L60.5175 22.8983ZM48.9438 4.93555L50.7828 5.74985L48.6494 4.42661L48.9438 4.93555ZM36.4986 9.54751L38.3808 10.3448L39.934 10.5251L36.4986 9.54751ZM55.8848 11.4331L57.699 12.2241L56.2433 10.0737L55.8848 11.4331ZM36.8326 45.2231L19.6577 46.7721L38.7174 45.8943L36.8326 45.2231ZM59.7601 17.1945L60.3145 19.9668L61.5575 17.9637L59.7601 17.1945ZM41.4212 45.4517L38.7174 45.8943L43.2853 46.1205L41.4212 45.4517Z" fill="url(#paint18_linear_153_299)"/>
<path d="M15.7726 36.6989L7.88291 46.154L7.8631 51.9738L15.7726 36.6989Z" fill="url(#paint19_linear_153_299)"/>
<path d="M54.6987 38.8838L56.5168 39.5766L58.2034 37.3278L54.6987 38.8838ZM60.3516 25.8699L62.1503 26.6095L62.3148 23.6482L60.3516 25.8699ZM52.7762 40.9092L50.6483 42.674L54.6001 41.5944L52.7762 40.9092ZM42.7549 60.1555L21.5753 61.9086L44.6205 60.7739L42.7549 60.1555Z" fill="url(#paint20_linear_153_299)"/>
<path d="M8.03008 2.8998L32.9788 8.80015L34.6029 8.74452L8.03008 2.8998Z" fill="url(#paint21_linear_153_299)"/>
<path d="M36.4986 9.54751L34.8788 9.6023L38.3808 10.3448L36.4986 9.54751ZM56.3906 36.6266L58.2034 37.3278L59.6348 34.8771L56.3906 36.6266ZM46.8051 3.60864L48.9438 4.93555L48.6494 4.42661L46.8051 3.60864ZM38.0558 9.7278L39.934 10.5251L41.4104 10.9261L38.0558 9.7278ZM59.8317 28.7586L61.6327 29.4881L62.1503 26.6095L59.8317 28.7586ZM54.4259 9.27581L55.8848 11.4331L56.2433 10.0737L54.4259 9.27581ZM57.8266 34.1669L59.6348 34.8771L60.7861 32.2539L57.8266 34.1669ZM44.0206 44.6351L45.8775 45.3077L48.3403 44.1496L44.0206 44.6351ZM32.9788 8.80015L15.8234 10.6513L34.8788 9.6023L32.9788 8.80015ZM60.3145 19.9668L60.5175 22.8983L62.1113 20.7268L60.3145 19.9668ZM58.9819 31.5343L60.7861 32.2539L61.6327 29.4881L58.9819 31.5343Z" fill="url(#paint22_linear_153_299)"/>
<path d="M40.7514 0.94723L35.6725 0L8.03008 2.8998L40.7514 0.94723Z" fill="url(#paint23_linear_153_299)"/>
<path d="M57.068 13.8222L58.8798 14.6056L57.699 12.2241L57.068 13.8222Z" fill="url(#paint24_linear_153_299)"/>
<path d="M8.03008 2.8998L34.6029 8.74452L36.1642 8.9248L8.03008 2.8998Z" fill="url(#paint25_linear_153_299)"/>
<path d="M17.6717 72.4014L19.6254 72.9754L19.6398 61.2983L17.6717 72.4014ZM54.6987 38.8838L52.7762 40.9092L56.5168 39.5766L54.6987 38.8838ZM50.8823 6.56428L52.7167 7.37377L50.7828 5.74985L50.8823 6.56428ZM15.7441 51.2789L17.7043 51.9284L17.7136 46.1072L15.7441 51.2789ZM44.0206 44.6351L41.4212 45.4517L45.8775 45.3077L44.0206 44.6351ZM38.0558 9.7278L36.4986 9.54751L39.934 10.5251L38.0558 9.7278ZM60.5175 22.8983L60.3516 25.8699L62.3148 23.6482L60.5175 22.8983Z" fill="url(#paint26_linear_153_299)"/>
<path d="M15.7726 36.6989L7.8631 51.9738L15.7555 45.4375L15.7726 36.6989Z" fill="url(#paint27_linear_153_299)"/>
<path d="M17.6904 60.6837L17.6717 72.4014L19.6398 61.2983L17.6904 60.6837ZM56.3906 36.6266L54.6987 38.8838L58.2034 37.3278L56.3906 36.6266Z" fill="url(#paint28_linear_153_299)"/>
<path d="M7.8631 51.9738L7.83332 60.7269L15.7555 45.4375L7.8631 51.9738Z" fill="url(#paint29_linear_153_299)"/>
<path d="M17.6717 72.4014L9.78198 73.0155L19.6254 72.9754L17.6717 72.4014ZM46.4903 43.4722L48.3403 44.1496L50.6483 42.674L46.4903 43.4722ZM60.3516 25.8699L59.8317 28.7586L62.1503 26.6095L60.3516 25.8699ZM55.8848 11.4331L57.068 13.8222L57.699 12.2241L55.8848 11.4331ZM57.8266 34.1669L56.3906 36.6266L59.6348 34.8771L57.8266 34.1669ZM48.9438 4.93555L50.8823 6.56428L50.7828 5.74985L48.9438 4.93555ZM57.9498 16.4197L59.7601 17.1945L58.8798 14.6056L57.9498 16.4197ZM59.8317 28.7586L58.9819 31.5343L61.6327 29.4881L59.8317 28.7586ZM58.9819 31.5343L57.8266 34.1669L60.7861 32.2539L58.9819 31.5343ZM15.7555 45.4375L15.7441 51.2789L17.7136 46.1072L15.7555 45.4375ZM36.8326 45.2231L38.7174 45.8943L41.4212 45.4517L36.8326 45.2231ZM42.7549 60.1555L44.6205 60.7739L44.5911 52.0231L42.7549 60.1555ZM39.536 10.1296L38.0558 9.7278L41.4104 10.9261L39.536 10.1296ZM46.4903 43.4722L44.0206 44.6351L48.3403 44.1496L46.4903 43.4722ZM52.5954 8.47218L54.4259 9.27581L52.7167 7.37377L52.5954 8.47218ZM48.805 41.9908L50.6483 42.674L52.7762 40.9092L48.805 41.9908ZM32.9788 8.80015L34.8788 9.6023L36.4986 9.54751L32.9788 8.80015ZM58.5047 19.2015L60.3145 19.9668L59.7601 17.1945L58.5047 19.2015ZM7.79346 72.4418L9.78198 73.0155L17.6717 72.4014L7.79346 72.4418ZM42.7285 51.3742L42.7549 60.1555L44.5911 52.0231L42.7285 51.3742ZM57.068 13.8222L57.9498 16.4197L58.8798 14.6056L57.068 13.8222Z" fill="url(#paint30_linear_153_299)"/>
<path d="M7.83332 60.7269L15.7441 51.2789L15.7555 45.4375L7.83332 60.7269Z" fill="url(#paint31_linear_153_299)"/>
<path d="M17.6904 60.6837L19.6398 61.2983L40.8759 59.5326L17.6904 60.6837ZM50.8823 6.56428L52.5954 8.47218L52.7167 7.37377L50.8823 6.56428ZM48.805 41.9908L46.4903 43.4722L50.6483 42.674L48.805 41.9908ZM50.9392 40.2191L52.7762 40.9092L54.6987 38.8838L50.9392 40.2191ZM15.7555 45.4375L17.7136 46.1072L34.9341 44.5471L15.7555 45.4375ZM39.5436 44.778L41.4212 45.4517L44.0206 44.6351L39.5436 44.778Z" fill="url(#paint32_linear_153_299)"/>
<path d="M48.8947 6.84746L8.03008 2.8998L36.1642 8.9248L48.8947 6.84746Z" fill="url(#paint33_linear_153_299)"/>
<path d="M58.7074 22.143L60.5175 22.8983L60.3145 19.9668L58.7074 22.143ZM47.0915 4.11539L48.9438 4.93555L46.8051 3.60864L47.0915 4.11539ZM34.6029 8.74452L36.4986 9.54751L38.0558 9.7278L34.6029 8.74452ZM54.0575 10.6363L55.8848 11.4331L54.4259 9.27581L54.0575 10.6363Z" fill="url(#paint34_linear_153_299)"/>
<path d="M48.8947 6.84746L40.7514 0.94723L8.03008 2.8998L48.8947 6.84746Z" fill="url(#paint35_linear_153_299)"/>
<path d="M34.9341 44.5471L17.7136 46.1072L36.8326 45.2231L34.9341 44.5471ZM57.9498 16.4197L58.5047 19.2015L59.7601 17.1945L57.9498 16.4197ZM39.5436 44.778L36.8326 45.2231L41.4212 45.4517L39.5436 44.778Z" fill="url(#paint36_linear_153_299)"/>
<path d="M7.83332 60.7269L7.79346 72.4418L15.727 60.0646L7.83332 60.7269ZM7.83332 60.7269L15.727 60.0646L15.7441 51.2789L7.83332 60.7269Z" fill="url(#paint37_linear_153_299)"/>
<path d="M52.8675 38.186L54.6987 38.8838L56.3906 36.6266L52.8675 38.186ZM58.54 25.1249L60.3516 25.8699L60.5175 22.8983L58.54 25.1249ZM50.9392 40.2191L48.805 41.9908L52.7762 40.9092L50.9392 40.2191ZM40.8759 59.5326L19.6398 61.2983L42.7549 60.1555L40.8759 59.5326ZM34.6029 8.74452L32.9788 8.80015L36.4986 9.54751L34.6029 8.74452ZM54.5647 35.9203L56.3906 36.6266L57.8266 34.1669L54.5647 35.9203ZM44.9476 2.78479L47.0915 4.11539L46.8051 3.60864L44.9476 2.78479ZM36.1642 8.9248L38.0558 9.7278L39.536 10.1296L36.1642 8.9248ZM58.0178 28.0238L59.8317 28.7586L60.3516 25.8699L58.0178 28.0238ZM52.5954 8.47218L54.0575 10.6363L54.4259 9.27581L52.5954 8.47218ZM56.0054 33.4516L57.8266 34.1669L58.9819 31.5343L56.0054 33.4516ZM42.1502 43.9577L44.0206 44.6351L46.4903 43.4722L42.1502 43.9577ZM58.5047 19.2015L58.7074 22.143L60.3145 19.9668L58.5047 19.2015ZM57.1647 30.8095L58.9819 31.5343L59.8317 28.7586L57.1647 30.8095ZM55.2431 13.0333L57.068 13.8222L55.8848 11.4331L55.2431 13.0333Z" fill="url(#paint38_linear_153_299)"/>
<path d="M33.0111 35.0569L15.7726 36.6989L15.7555 45.4375L33.0111 35.0569Z" fill="url(#paint39_linear_153_299)"/>
<path d="M15.704 71.8232L17.6717 72.4014L17.6904 60.6837L15.704 71.8232ZM52.8675 38.186L50.9392 40.2191L54.6987 38.8838L52.8675 38.186ZM49.0347 5.74895L50.8823 6.56428L48.9438 4.93555L49.0347 5.74895ZM42.1502 43.9577L39.5436 44.778L44.0206 44.6351L42.1502 43.9577ZM36.1642 8.9248L34.6029 8.74452L38.0558 9.7278L36.1642 8.9248ZM58.7074 22.143L58.54 25.1249L60.5175 22.8983L58.7074 22.143ZM15.727 60.0646L15.704 71.8232L17.6904 60.6837L15.727 60.0646ZM54.5647 35.9203L52.8675 38.186L56.3906 36.6266L54.5647 35.9203ZM15.704 71.8232L7.79346 72.4418L17.6717 72.4014L15.704 71.8232ZM44.627 42.7899L46.4903 43.4722L48.805 41.9908L44.627 42.7899ZM58.54 25.1249L58.0178 28.0238L60.3516 25.8699L58.54 25.1249ZM54.0575 10.6363L55.2431 13.0333L55.8848 11.4331L54.0575 10.6363ZM56.0054 33.4516L54.5647 35.9203L57.8266 34.1669L56.0054 33.4516ZM47.0915 4.11539L49.0347 5.74895L48.9438 4.93555L47.0915 4.11539ZM56.1264 15.6394L57.9498 16.4197L57.068 13.8222L56.1264 15.6394ZM58.0178 28.0238L57.1647 30.8095L59.8317 28.7586L58.0178 28.0238ZM57.1647 30.8095L56.0054 33.4516L58.9819 31.5343L57.1647 30.8095ZM34.9341 44.5471L36.8326 45.2231L39.5436 44.778L34.9341 44.5471ZM40.8759 59.5326L42.7549 60.1555L42.7285 51.3742L40.8759 59.5326ZM37.6481 9.32739L36.1642 8.9248L39.536 10.1296L37.6481 9.32739Z" fill="url(#paint40_linear_153_299)"/>
<path d="M7.79346 72.4418L15.704 71.8232L15.727 60.0646L7.79346 72.4418ZM40.7514 0.94723L38.2751 0.288234L35.6725 0L40.7514 0.94723Z" fill="url(#paint41_linear_153_299)"/>
<path d="M44.627 42.7899L42.1502 43.9577L46.4903 43.4722L44.627 42.7899ZM50.7517 7.66275L52.5954 8.47218L50.8823 6.56428L50.7517 7.66275ZM46.9484 41.3026L48.805 41.9908L50.9392 40.2191L46.9484 41.3026ZM56.6819 18.4306L58.5047 19.2015L57.9498 16.4197L56.6819 18.4306ZM40.8524 50.7207L40.8759 59.5326L42.7285 51.3742L40.8524 50.7207ZM55.2431 13.0333L56.1264 15.6394L57.068 13.8222L55.2431 13.0333ZM15.727 60.0646L17.6904 60.6837L38.9832 58.9052L15.727 60.0646ZM49.0347 5.74895L50.7517 7.66275L50.8823 6.56428L49.0347 5.74895ZM46.9484 41.3026L44.627 42.7899L48.805 41.9908L46.9484 41.3026ZM49.0889 39.524L50.9392 40.2191L52.8675 38.186L49.0889 39.524ZM37.6526 44.0995L39.5436 44.778L42.1502 43.9577L37.6526 44.0995ZM56.8841 21.3822L58.7074 22.143L58.5047 19.2015L56.8841 21.3822ZM45.2258 3.28931L47.0915 4.11539L44.9476 2.78479L45.2258 3.28931ZM52.2171 9.83377L54.0575 10.6363L52.5954 8.47218L52.2171 9.83377ZM33.0219 43.8661L15.7555 45.4375L34.9341 44.5471L33.0219 43.8661ZM56.1264 15.6394L56.6819 18.4306L57.9498 16.4197L56.1264 15.6394ZM37.6526 44.0995L34.9341 44.5471L39.5436 44.778L37.6526 44.0995ZM51.0231 37.4831L52.8675 38.186L54.5647 35.9203L51.0231 37.4831ZM56.7153 24.3746L58.54 25.1249L58.7074 22.143L56.7153 24.3746ZM49.0889 39.524L46.9484 41.3026L50.9392 40.2191L49.0889 39.524Z" fill="url(#paint42_linear_153_299)"/>
<path d="M34.6427 34.7807L33.0111 35.0569L15.7555 45.4375L34.6427 34.7807Z" fill="url(#paint43_linear_153_299)"/>
<path d="M38.9832 58.9052L17.6904 60.6837L40.8759 59.5326L38.9832 58.9052ZM52.7256 35.209L54.5647 35.9203L56.0054 33.4516L52.7256 35.209ZM43.0767 1.95499L45.2258 3.28931L44.9476 2.78479L43.0767 1.95499ZM56.1907 27.2838L58.0178 28.0238L58.54 25.1249L56.1907 27.2838ZM50.7517 7.66275L52.2171 9.83377L52.5954 8.47218L50.7517 7.66275ZM54.1711 32.7312L56.0054 33.4516L57.1647 30.8095L54.1711 32.7312ZM40.2664 43.2755L42.1502 43.9577L44.627 42.7899L40.2664 43.2755ZM56.6819 18.4306L56.8841 21.3822L58.5047 19.2015L56.6819 18.4306ZM55.3344 30.0794L57.1647 30.8095L58.0178 28.0238L55.3344 30.0794Z" fill="url(#paint44_linear_153_299)"/>
<path d="M36.2103 34.2793L34.6427 34.7807L15.7555 45.4375L36.2103 34.2793Z" fill="url(#paint45_linear_153_299)"/>
<path d="M53.405 12.2386L55.2431 13.0333L54.0575 10.6363L53.405 12.2386ZM51.0231 37.4831L49.0889 39.524L52.8675 38.186L51.0231 37.4831ZM47.1737 4.92772L49.0347 5.74895L47.0915 4.11539L47.1737 4.92772ZM40.2664 43.2755L37.6526 44.0995L42.1502 43.9577L40.2664 43.2755Z" fill="url(#paint46_linear_153_299)"/>
<path d="M15.727 60.0646L37.0768 58.2733L15.7441 51.2789L15.727 60.0646ZM45.2258 3.28931L43.0767 1.95499L40.7514 0.94723L45.2258 3.28931Z" fill="url(#paint47_linear_153_299)"/>
<path d="M56.8841 21.3822L56.7153 24.3746L58.7074 22.143L56.8841 21.3822Z" fill="url(#paint48_linear_153_299)"/>
<path d="M48.8947 6.84746L36.1642 8.9248L37.6481 9.32739L48.8947 6.84746Z" fill="url(#paint49_linear_153_299)"/>
<path d="M52.7256 35.209L51.0231 37.4831L54.5647 35.9203L52.7256 35.209Z" fill="url(#paint50_linear_153_299)"/>
<path d="M15.7555 45.4375L33.0219 43.8661L35.7478 43.416L15.7555 45.4375Z" fill="url(#paint51_linear_153_299)"/>
<path d="M42.7502 42.1027L44.627 42.7899L46.9484 41.3026L42.7502 42.1027ZM56.7153 24.3746L56.1907 27.2838L58.54 25.1249L56.7153 24.3746ZM52.2171 9.83377L53.405 12.2386L54.0575 10.6363L52.2171 9.83377ZM54.1711 32.7312L52.7256 35.209L56.0054 33.4516L54.1711 32.7312ZM45.2258 3.28931L47.1737 4.92772L47.0915 4.11539L45.2258 3.28931ZM54.2899 14.8534L56.1264 15.6394L55.2431 13.0333L54.2899 14.8534ZM56.1907 27.2838L55.3344 30.0794L58.0178 28.0238L56.1907 27.2838Z" fill="url(#paint52_linear_153_299)"/>
<path d="M48.8947 6.84746L37.6481 9.32739L39.0399 9.93865L48.8947 6.84746Z" fill="url(#paint53_linear_153_299)"/>
<path d="M55.3344 30.0794L54.1711 32.7312L57.1647 30.8095L55.3344 30.0794ZM33.0219 43.8661L34.9341 44.5471L37.6526 44.0995L33.0219 43.8661ZM38.9832 58.9052L40.8759 59.5326L40.8524 50.7207L38.9832 58.9052ZM42.7502 42.1027L40.2664 43.2755L44.627 42.7899L42.7502 42.1027ZM48.8947 6.84746L50.7517 7.66275L49.0347 5.74895L48.8947 6.84746Z" fill="url(#paint54_linear_153_299)"/>
<path d="M48.8947 6.84746L39.0399 9.93865L40.3249 10.7448L48.8947 6.84746Z" fill="url(#paint55_linear_153_299)"/>
<path d="M45.0783 40.6094L46.9484 41.3026L49.0889 39.524L45.0783 40.6094Z" fill="url(#paint56_linear_153_299)"/>
<path d="M48.8947 6.84746L45.2258 3.28931L40.7514 0.94723L48.8947 6.84746Z" fill="url(#paint57_linear_153_299)"/>
<path d="M54.8459 17.6541L56.6819 18.4306L56.1264 15.6394L54.8459 17.6541ZM38.9627 50.0625L38.9832 58.9052L40.8524 50.7207L38.9627 50.0625ZM53.405 12.2386L54.2899 14.8534L55.2431 13.0333L53.405 12.2386Z" fill="url(#paint58_linear_153_299)"/>
<path d="M48.8947 6.84746L40.3249 10.7448L41.4881 11.7321L48.8947 6.84746Z" fill="url(#paint59_linear_153_299)"/>
<path d="M47.1737 4.92772L48.8947 6.84746L49.0347 5.74895L47.1737 4.92772ZM45.0783 40.6094L42.7502 42.1027L46.9484 41.3026L45.0783 40.6094ZM47.2252 38.8239L49.0889 39.524L51.0231 37.4831L47.2252 38.8239ZM35.7478 43.416L37.6526 44.0995L40.2664 43.2755L35.7478 43.416Z" fill="url(#paint60_linear_153_299)"/>
<path d="M36.2103 34.2793L15.7555 45.4375L51.6338 28.6033L36.2103 34.2793Z" fill="url(#paint61_linear_153_299)"/>
<path d="M55.0477 20.616L56.8841 21.3822L56.6819 18.4306L55.0477 20.616ZM50.3632 9.02542L52.2171 9.83377L50.7517 7.66275L50.3632 9.02542Z" fill="url(#paint62_linear_153_299)"/>
<path d="M48.8947 6.84746L41.4881 11.7321L42.5145 12.8866L48.8947 6.84746Z" fill="url(#paint63_linear_153_299)"/>
<path d="M54.2899 14.8534L54.8459 17.6541L56.1264 15.6394L54.2899 14.8534ZM35.7478 43.416L33.0219 43.8661L37.6526 44.0995L35.7478 43.416ZM49.1654 36.7752L51.0231 37.4831L52.7256 35.209L49.1654 36.7752Z" fill="url(#paint64_linear_153_299)"/>
<path d="M15.7555 45.4375L35.7478 43.416L51.6338 28.6033L15.7555 45.4375ZM48.8947 6.84746L47.1737 4.92772L45.2258 3.28931L48.8947 6.84746Z" fill="url(#paint65_linear_153_299)"/>
<path d="M54.8774 23.6188L56.7153 24.3746L56.8841 21.3822L54.8774 23.6188Z" fill="url(#paint66_linear_153_299)"/>
<path d="M48.8947 6.84746L42.5145 12.8866L43.3893 14.1942L48.8947 6.84746Z" fill="url(#paint67_linear_153_299)"/>
<path d="M47.2252 38.8239L45.0783 40.6094L49.0889 39.524L47.2252 38.8239ZM37.0768 58.2733L15.727 60.0646L38.9832 58.9052L37.0768 58.2733ZM50.8733 34.4925L52.7256 35.209L54.1711 32.7312L50.8733 34.4925Z" fill="url(#paint68_linear_153_299)"/>
<path d="M37.0768 58.2733L37.0593 49.3995L15.7441 51.2789L37.0768 58.2733Z" fill="url(#paint69_linear_153_299)"/>
<path d="M54.3504 26.5383L56.1907 27.2838L56.7153 24.3746L54.3504 26.5383ZM48.8947 6.84746L50.3632 9.02542L50.7517 7.66275L48.8947 6.84746ZM52.3235 32.0055L54.1711 32.7312L55.3344 30.0794L52.3235 32.0055ZM38.3689 42.5883L40.2664 43.2755L42.7502 42.1027L38.3689 42.5883ZM54.8459 17.6541L55.0477 20.616L56.6819 18.4306L54.8459 17.6541ZM53.4908 29.344L55.3344 30.0794L56.1907 27.2838L53.4908 29.344Z" fill="url(#paint70_linear_153_299)"/>
<path d="M48.8947 6.84746L43.3893 14.1942L44.0972 15.6407L48.8947 6.84746Z" fill="url(#paint71_linear_153_299)"/>
<path d="M51.5536 11.4381L53.405 12.2386L52.2171 9.83377L51.5536 11.4381ZM49.1654 36.7752L47.2252 38.8239L51.0231 37.4831L49.1654 36.7752Z" fill="url(#paint72_linear_153_299)"/>
<path d="M48.8947 6.84746L44.0972 15.6407L44.6233 17.2118L48.8947 6.84746Z" fill="url(#paint73_linear_153_299)"/>
<path d="M38.3689 42.5883L35.7478 43.416L40.2664 43.2755L38.3689 42.5883ZM55.0477 20.616L54.8774 23.6188L56.8841 21.3822L55.0477 20.616ZM50.8733 34.4925L49.1654 36.7752L52.7256 35.209L50.8733 34.4925Z" fill="url(#paint74_linear_153_299)"/>
<path d="M48.8947 6.84746L44.6233 17.2118L44.9524 18.8931L48.8947 6.84746Z" fill="url(#paint75_linear_153_299)"/>
<path d="M40.8597 41.4106L42.7502 42.1027L45.0783 40.6094L40.8597 41.4106ZM54.8774 23.6188L54.3504 26.5383L56.7153 24.3746L54.8774 23.6188ZM50.3632 9.02542L51.5536 11.4381L52.2171 9.83377L50.3632 9.02542Z" fill="url(#paint76_linear_153_299)"/>
<path d="M48.8947 6.84746L44.9524 18.8931L45.0697 20.6699L48.8947 6.84746Z" fill="url(#paint77_linear_153_299)"/>
<path d="M52.3235 32.0055L50.8733 34.4925L54.1711 32.7312L52.3235 32.0055ZM52.4399 14.0617L54.2899 14.8534L53.405 12.2386L52.4399 14.0617ZM54.3504 26.5383L53.4908 29.344L56.1907 27.2838L54.3504 26.5383ZM53.4908 29.344L52.3235 32.0055L55.3344 30.0794L53.4908 29.344Z" fill="url(#paint78_linear_153_299)"/>
<path d="M48.8947 6.84746L45.0697 20.6699L44.9647 22.4704L48.8947 6.84746Z" fill="url(#paint79_linear_153_299)"/>
<path d="M37.0768 58.2733L38.9832 58.9052L38.9627 50.0625L37.0768 58.2733Z" fill="url(#paint80_linear_153_299)"/>
<path d="M48.8947 6.84746L44.9647 22.4704L44.647 24.2208L48.8947 6.84746Z" fill="url(#paint81_linear_153_299)"/>
<path d="M40.8597 41.4106L38.3689 42.5883L42.7502 42.1027L40.8597 41.4106ZM43.1946 39.9112L45.0783 40.6094L47.2252 38.8239L43.1946 39.9112Z" fill="url(#paint82_linear_153_299)"/>
<path d="M51.5536 11.4381L50.3632 9.02542L48.8947 6.84746L51.5536 11.4381ZM37.6989 33.5696L36.2103 34.2793L51.6338 28.6033L37.6989 33.5696Z" fill="url(#paint83_linear_153_299)"/>
<path d="M52.9966 16.8719L54.8459 17.6541L54.2899 14.8534L52.9966 16.8719ZM37.0593 49.3995L37.0768 58.2733L38.9627 50.0625L37.0593 49.3995ZM51.5536 11.4381L52.4399 14.0617L53.405 12.2386L51.5536 11.4381Z" fill="url(#paint84_linear_153_299)"/>
<path d="M35.7478 43.416L38.3689 42.5883L40.8597 41.4106L35.7478 43.416ZM39.0935 32.6687L37.6989 33.5696L51.6338 28.6033L39.0935 32.6687Z" fill="url(#paint85_linear_153_299)"/>
<path d="M43.1946 39.9112L40.8597 41.4106L45.0783 40.6094L43.1946 39.9112ZM45.348 38.1187L47.2252 38.8239L49.1654 36.7752L45.348 38.1187Z" fill="url(#paint86_linear_153_299)"/>
<path d="M40.3789 31.5938L39.0935 32.6687L51.6338 28.6033L40.3789 31.5938Z" fill="url(#paint87_linear_153_299)"/>
<path d="M53.1979 19.8441L55.0477 20.616L54.8459 17.6541L53.1979 19.8441Z" fill="url(#paint88_linear_153_299)"/>
<path d="M52.9966 16.8719L51.5536 11.4381L48.8947 6.84746L52.9966 16.8719ZM41.5404 30.3622L40.3789 31.5938L51.6338 28.6033L41.5404 30.3622Z" fill="url(#paint89_linear_153_299)"/>
<path d="M52.4399 14.0617L52.9966 16.8719L54.2899 14.8534L52.4399 14.0617Z" fill="url(#paint90_linear_153_299)"/>
<path d="M51.6338 28.6033L48.8947 6.84746L44.647 24.2208L51.6338 28.6033ZM35.7478 43.416L40.8597 41.4106L45.348 38.1187L35.7478 43.416Z" fill="url(#paint91_linear_153_299)"/>
<path d="M47.2941 36.0621L49.1654 36.7752L50.8733 34.4925L47.2941 36.0621Z" fill="url(#paint92_linear_153_299)"/>
<path d="M42.5628 28.9915L41.5404 30.3622L51.6338 28.6033L42.5628 28.9915Z" fill="url(#paint93_linear_153_299)"/>
<path d="M53.0261 22.8575L54.8774 23.6188L55.0477 20.616L53.0261 22.8575Z" fill="url(#paint94_linear_153_299)"/>
<path d="M43.4313 27.4991L42.5628 28.9915L51.6338 28.6033L43.4313 27.4991Z" fill="url(#paint95_linear_153_299)"/>
<path d="M45.348 38.1187L43.1946 39.9112L47.2252 38.8239L45.348 38.1187Z" fill="url(#paint96_linear_153_299)"/>
<path d="M44.1309 25.903L43.4313 27.4991L51.6338 28.6033L44.1309 25.903ZM44.647 24.2208L44.1309 25.903L51.6338 28.6033L44.647 24.2208Z" fill="url(#paint97_linear_153_299)"/>
<path d="M49.0074 33.7708L50.8733 34.4925L52.3235 32.0055L49.0074 33.7708ZM52.4966 25.7875L54.3504 26.5383L54.8774 23.6188L52.4966 25.7875ZM50.4624 31.2745L52.3235 32.0055L53.4908 29.344L50.4624 31.2745ZM52.9966 16.8719L53.1979 19.8441L54.8459 17.6541L52.9966 16.8719ZM51.6338 28.6033L53.4908 29.344L54.3504 26.5383L51.6338 28.6033Z" fill="url(#paint98_linear_153_299)"/>
<path d="M52.9966 16.8719L52.4399 14.0617L51.5536 11.4381L52.9966 16.8719ZM51.6338 28.6033L52.9966 16.8719L48.8947 6.84746L51.6338 28.6033Z" fill="url(#paint99_linear_153_299)"/>
<path d="M47.2941 36.0621L45.348 38.1187L49.1654 36.7752L47.2941 36.0621Z" fill="url(#paint100_linear_153_299)"/>
<path d="M35.7478 43.416L45.348 38.1187L51.6338 28.6033L35.7478 43.416ZM40.8597 41.4106L43.1946 39.9112L45.348 38.1187L40.8597 41.4106Z" fill="url(#paint101_linear_153_299)"/>
<path d="M53.1979 19.8441L53.0261 22.8575L55.0477 20.616L53.1979 19.8441ZM49.0074 33.7708L47.2941 36.0621L50.8733 34.4925L49.0074 33.7708ZM53.0261 22.8575L52.4966 25.7875L54.8774 23.6188L53.0261 22.8575ZM50.4624 31.2745L49.0074 33.7708L52.3235 32.0055L50.4624 31.2745ZM52.4966 25.7875L51.6338 28.6033L54.3504 26.5383L52.4966 25.7875ZM51.6338 28.6033L50.4624 31.2745L53.4908 29.344L51.6338 28.6033Z" fill="url(#paint102_linear_153_299)"/>
<path d="M53.0261 22.8575L53.1979 19.8441L52.9966 16.8719L53.0261 22.8575ZM45.348 38.1187L47.2941 36.0621L49.0074 33.7708L45.348 38.1187ZM51.6338 28.6033L53.0261 22.8575L52.9966 16.8719L51.6338 28.6033ZM45.348 38.1187L49.0074 33.7708L51.6338 28.6033L45.348 38.1187ZM49.0074 33.7708L50.4624 31.2745L51.6338 28.6033L49.0074 33.7708ZM51.6338 28.6033L52.4966 25.7875L53.0261 22.8575L51.6338 28.6033Z" fill="url(#paint103_linear_153_299)"/>
</g>
<defs>
<linearGradient id="paint0_linear_153_299" x1="32.0496" y1="0" x2="32.0496" y2="75.8237" gradientUnits="userSpaceOnUse">
<stop stop-color="#121212"/>
<stop offset="0.07" stop-color="#C6C6C6"/>
<stop offset="0.125" stop-color="#646464"/>
<stop offset="0.25" stop-color="#3E3E3E"/>
<stop offset="0.48" stop-color="#232323"/>
<stop offset="0.57" stop-color="#7C7C7C"/>
<stop offset="0.68" stop-color="#2F2F2F"/>
<stop offset="0.815" stop-color="#606060"/>
<stop offset="1" stop-color="#262626"/>
</linearGradient>
<linearGradient id="paint1_linear_153_299" x1="3.60558" y1="-10.2362" x2="75.2736" y2="3.0688" gradientUnits="userSpaceOnUse">
<stop stop-color="#727272"/>
<stop offset="0.19" stop-color="#B1B1B1"/>
<stop offset="0.5" stop-color="white"/>
<stop offset="0.76" stop-color="#A4A4A4"/>
<stop offset="1" stop-color="#424242"/>
</linearGradient>
<linearGradient id="paint2_linear_153_299" x1="32.0496" y1="0" x2="32.0496" y2="75.8237" gradientUnits="userSpaceOnUse">
<stop stop-color="#121212"/>
<stop offset="0.07" stop-color="#C6C6C6"/>
<stop offset="0.125" stop-color="#646464"/>
<stop offset="0.25" stop-color="#3E3E3E"/>
<stop offset="0.48" stop-color="#232323"/>
<stop offset="0.57" stop-color="#7C7C7C"/>
<stop offset="0.68" stop-color="#2F2F2F"/>
<stop offset="0.815" stop-color="#606060"/>
<stop offset="1" stop-color="#262626"/>
</linearGradient>
<linearGradient id="paint3_linear_153_299" x1="3.60558" y1="-10.2362" x2="75.2736" y2="3.0688" gradientUnits="userSpaceOnUse">
<stop stop-color="#727272"/>
<stop offset="0.19" stop-color="#B1B1B1"/>
<stop offset="0.5" stop-color="white"/>
<stop offset="0.76" stop-color="#A4A4A4"/>
<stop offset="1" stop-color="#424242"/>
</linearGradient>
<linearGradient id="paint4_linear_153_299" x1="32.0496" y1="0" x2="32.0496" y2="75.8237" gradientUnits="userSpaceOnUse">
<stop stop-color="#121212"/>
<stop offset="0.07" stop-color="#C6C6C6"/>
<stop offset="0.125" stop-color="#646464"/>
<stop offset="0.25" stop-color="#3E3E3E"/>
<stop offset="0.48" stop-color="#232323"/>
<stop offset="0.57" stop-color="#7C7C7C"/>
<stop offset="0.68" stop-color="#2F2F2F"/>
<stop offset="0.815" stop-color="#606060"/>
<stop offset="1" stop-color="#262626"/>
</linearGradient>
<linearGradient id="paint5_linear_153_299" x1="3.60558" y1="-10.2362" x2="75.2736" y2="3.0688" gradientUnits="userSpaceOnUse">
<stop stop-color="#727272"/>
<stop offset="0.19" stop-color="#B1B1B1"/>
<stop offset="0.5" stop-color="white"/>
<stop offset="0.76" stop-color="#A4A4A4"/>
<stop offset="1" stop-color="#424242"/>
</linearGradient>
<linearGradient id="paint6_linear_153_299" x1="32.0496" y1="0" x2="32.0496" y2="75.8237" gradientUnits="userSpaceOnUse">
<stop stop-color="#121212"/>
<stop offset="0.07" stop-color="#C6C6C6"/>
<stop offset="0.125" stop-color="#646464"/>
<stop offset="0.25" stop-color="#3E3E3E"/>
<stop offset="0.48" stop-color="#232323"/>
<stop offset="0.57" stop-color="#7C7C7C"/>
<stop offset="0.68" stop-color="#2F2F2F"/>
<stop offset="0.815" stop-color="#606060"/>
<stop offset="1" stop-color="#262626"/>
</linearGradient>
<linearGradient id="paint7_linear_153_299" x1="3.60558" y1="-10.2362" x2="75.2736" y2="3.0688" gradientUnits="userSpaceOnUse">
<stop stop-color="#727272"/>
<stop offset="0.19" stop-color="#B1B1B1"/>
<stop offset="0.5" stop-color="white"/>
<stop offset="0.76" stop-color="#A4A4A4"/>
<stop offset="1" stop-color="#424242"/>
</linearGradient>
<linearGradient id="paint8_linear_153_299" x1="32.0496" y1="0" x2="32.0496" y2="75.8237" gradientUnits="userSpaceOnUse">
<stop stop-color="#121212"/>
<stop offset="0.07" stop-color="#C6C6C6"/>
<stop offset="0.125" stop-color="#646464"/>
<stop offset="0.25" stop-color="#3E3E3E"/>
<stop offset="0.48" stop-color="#232323"/>
<stop offset="0.57" stop-color="#7C7C7C"/>
<stop offset="0.68" stop-color="#2F2F2F"/>
<stop offset="0.815" stop-color="#606060"/>
<stop offset="1" stop-color="#262626"/>
</linearGradient>
<linearGradient id="paint9_linear_153_299" x1="3.60558" y1="-10.2362" x2="75.2736" y2="3.0688" gradientUnits="userSpaceOnUse">
<stop stop-color="#727272"/>
<stop offset="0.19" stop-color="#B1B1B1"/>
<stop offset="0.5" stop-color="white"/>
<stop offset="0.76" stop-color="#A4A4A4"/>
<stop offset="1" stop-color="#424242"/>
</linearGradient>
<linearGradient id="paint10_linear_153_299" x1="32.0496" y1="0" x2="32.0496" y2="75.8237" gradientUnits="userSpaceOnUse">
<stop stop-color="#121212"/>
<stop offset="0.07" stop-color="#C6C6C6"/>
<stop offset="0.125" stop-color="#646464"/>
<stop offset="0.25" stop-color="#3E3E3E"/>
<stop offset="0.48" stop-color="#232323"/>
<stop offset="0.57" stop-color="#7C7C7C"/>
<stop offset="0.68" stop-color="#2F2F2F"/>
<stop offset="0.815" stop-color="#606060"/>
<stop offset="1" stop-color="#262626"/>
</linearGradient>
<linearGradient id="paint11_linear_153_299" x1="3.60558" y1="-10.2362" x2="75.2736" y2="3.0688" gradientUnits="userSpaceOnUse">
<stop stop-color="#727272"/>
<stop offset="0.19" stop-color="#B1B1B1"/>
<stop offset="0.5" stop-color="white"/>
<stop offset="0.76" stop-color="#A4A4A4"/>
<stop offset="1" stop-color="#424242"/>
</linearGradient>
<linearGradient id="paint12_linear_153_299" x1="32.0496" y1="0" x2="32.0496" y2="75.8237" gradientUnits="userSpaceOnUse">
<stop stop-color="#121212"/>
<stop offset="0.07" stop-color="#C6C6C6"/>
<stop offset="0.125" stop-color="#646464"/>
<stop offset="0.25" stop-color="#3E3E3E"/>
<stop offset="0.48" stop-color="#232323"/>
<stop offset="0.57" stop-color="#7C7C7C"/>
<stop offset="0.68" stop-color="#2F2F2F"/>
<stop offset="0.815" stop-color="#606060"/>
<stop offset="1" stop-color="#262626"/>
</linearGradient>
<linearGradient id="paint13_linear_153_299" x1="3.60558" y1="-10.2362" x2="75.2736" y2="3.0688" gradientUnits="userSpaceOnUse">
<stop stop-color="#727272"/>
<stop offset="0.19" stop-color="#B1B1B1"/>
<stop offset="0.5" stop-color="white"/>
<stop offset="0.76" stop-color="#A4A4A4"/>
<stop offset="1" stop-color="#424242"/>
</linearGradient>
<linearGradient id="paint14_linear_153_299" x1="32.0496" y1="0" x2="32.0496" y2="75.8237" gradientUnits="userSpaceOnUse">
<stop stop-color="#121212"/>
<stop offset="0.07" stop-color="#C6C6C6"/>
<stop offset="0.125" stop-color="#646464"/>
<stop offset="0.25" stop-color="#3E3E3E"/>
<stop offset="0.48" stop-color="#232323"/>
<stop offset="0.57" stop-color="#7C7C7C"/>
<stop offset="0.68" stop-color="#2F2F2F"/>
<stop offset="0.815" stop-color="#606060"/>
<stop offset="1" stop-color="#262626"/>
</linearGradient>
<linearGradient id="paint15_linear_153_299" x1="3.60558" y1="-10.2362" x2="75.2736" y2="3.0688" gradientUnits="userSpaceOnUse">
<stop stop-color="#727272"/>
<stop offset="0.19" stop-color="#B1B1B1"/>
<stop offset="0.5" stop-color="white"/>
<stop offset="0.76" stop-color="#A4A4A4"/>
<stop offset="1" stop-color="#424242"/>
</linearGradient>
<linearGradient id="paint16_linear_153_299" x1="32.0496" y1="0" x2="32.0496" y2="75.8237" gradientUnits="userSpaceOnUse">
<stop stop-color="#121212"/>
<stop offset="0.07" stop-color="#C6C6C6"/>
<stop offset="0.125" stop-color="#646464"/>
<stop offset="0.25" stop-color="#3E3E3E"/>
<stop offset="0.48" stop-color="#232323"/>
<stop offset="0.57" stop-color="#7C7C7C"/>
<stop offset="0.68" stop-color="#2F2F2F"/>
<stop offset="0.815" stop-color="#606060"/>
<stop offset="1" stop-color="#262626"/>
</linearGradient>
<linearGradient id="paint17_linear_153_299" x1="3.60558" y1="-10.2362" x2="75.2736" y2="3.0688" gradientUnits="userSpaceOnUse">
<stop stop-color="#727272"/>
<stop offset="0.19" stop-color="#B1B1B1"/>
<stop offset="0.5" stop-color="white"/>
<stop offset="0.76" stop-color="#A4A4A4"/>
<stop offset="1" stop-color="#424242"/>
</linearGradient>
<linearGradient id="paint18_linear_153_299" x1="32.0496" y1="0" x2="32.0496" y2="75.8237" gradientUnits="userSpaceOnUse">
<stop stop-color="#121212"/>
<stop offset="0.07" stop-color="#C6C6C6"/>
<stop offset="0.125" stop-color="#646464"/>
<stop offset="0.25" stop-color="#3E3E3E"/>
<stop offset="0.48" stop-color="#232323"/>
<stop offset="0.57" stop-color="#7C7C7C"/>
<stop offset="0.68" stop-color="#2F2F2F"/>
<stop offset="0.815" stop-color="#606060"/>
<stop offset="1" stop-color="#262626"/>
</linearGradient>
<linearGradient id="paint19_linear_153_299" x1="3.60558" y1="-10.2362" x2="75.2736" y2="3.0688" gradientUnits="userSpaceOnUse">
<stop stop-color="#727272"/>
<stop offset="0.19" stop-color="#B1B1B1"/>
<stop offset="0.5" stop-color="white"/>
<stop offset="0.76" stop-color="#A4A4A4"/>
<stop offset="1" stop-color="#424242"/>
</linearGradient>
<linearGradient id="paint20_linear_153_299" x1="32.0496" y1="0" x2="32.0496" y2="75.8237" gradientUnits="userSpaceOnUse">
<stop stop-color="#121212"/>
<stop offset="0.07" stop-color="#C6C6C6"/>
<stop offset="0.125" stop-color="#646464"/>
<stop offset="0.25" stop-color="#3E3E3E"/>
<stop offset="0.48" stop-color="#232323"/>
<stop offset="0.57" stop-color="#7C7C7C"/>
<stop offset="0.68" stop-color="#2F2F2F"/>
<stop offset="0.815" stop-color="#606060"/>
<stop offset="1" stop-color="#262626"/>
</linearGradient>
<linearGradient id="paint21_linear_153_299" x1="3.60558" y1="-10.2362" x2="75.2736" y2="3.0688" gradientUnits="userSpaceOnUse">
<stop stop-color="#727272"/>
<stop offset="0.19" stop-color="#B1B1B1"/>
<stop offset="0.5" stop-color="white"/>
<stop offset="0.76" stop-color="#A4A4A4"/>
<stop offset="1" stop-color="#424242"/>
</linearGradient>
<linearGradient id="paint22_linear_153_299" x1="32.0496" y1="0" x2="32.0496" y2="75.8237" gradientUnits="userSpaceOnUse">
<stop stop-color="#121212"/>
<stop offset="0.07" stop-color="#C6C6C6"/>
<stop offset="0.125" stop-color="#646464"/>
<stop offset="0.25" stop-color="#3E3E3E"/>
<stop offset="0.48" stop-color="#232323"/>
<stop offset="0.57" stop-color="#7C7C7C"/>
<stop offset="0.68" stop-color="#2F2F2F"/>
<stop offset="0.815" stop-color="#606060"/>
<stop offset="1" stop-color="#262626"/>
</linearGradient>
<linearGradient id="paint23_linear_153_299" x1="3.60558" y1="-10.2362" x2="75.2736" y2="3.0688" gradientUnits="userSpaceOnUse">
<stop stop-color="#727272"/>
<stop offset="0.19" stop-color="#B1B1B1"/>
<stop offset="0.5" stop-color="white"/>
<stop offset="0.76" stop-color="#A4A4A4"/>
<stop offset="1" stop-color="#424242"/>
</linearGradient>
<linearGradient id="paint24_linear_153_299" x1="32.0496" y1="0" x2="32.0496" y2="75.8237" gradientUnits="userSpaceOnUse">
<stop stop-color="#121212"/>
<stop offset="0.07" stop-color="#C6C6C6"/>
<stop offset="0.125" stop-color="#646464"/>
<stop offset="0.25" stop-color="#3E3E3E"/>
<stop offset="0.48" stop-color="#232323"/>
<stop offset="0.57" stop-color="#7C7C7C"/>
<stop offset="0.68" stop-color="#2F2F2F"/>
<stop offset="0.815" stop-color="#606060"/>
<stop offset="1" stop-color="#262626"/>
</linearGradient>
<linearGradient id="paint25_linear_153_299" x1="3.60558" y1="-10.2362" x2="75.2736" y2="3.0688" gradientUnits="userSpaceOnUse">
<stop stop-color="#727272"/>
<stop offset="0.19" stop-color="#B1B1B1"/>
<stop offset="0.5" stop-color="white"/>
<stop offset="0.76" stop-color="#A4A4A4"/>
<stop offset="1" stop-color="#424242"/>
</linearGradient>
<linearGradient id="paint26_linear_153_299" x1="32.0496" y1="0" x2="32.0496" y2="75.8237" gradientUnits="userSpaceOnUse">
<stop stop-color="#121212"/>
<stop offset="0.07" stop-color="#C6C6C6"/>
<stop offset="0.125" stop-color="#646464"/>
<stop offset="0.25" stop-color="#3E3E3E"/>
<stop offset="0.48" stop-color="#232323"/>
<stop offset="0.57" stop-color="#7C7C7C"/>
<stop offset="0.68" stop-color="#2F2F2F"/>
<stop offset="0.815" stop-color="#606060"/>
<stop offset="1" stop-color="#262626"/>
</linearGradient>
<linearGradient id="paint27_linear_153_299" x1="3.60558" y1="-10.2362" x2="75.2736" y2="3.0688" gradientUnits="userSpaceOnUse">
<stop stop-color="#727272"/>
<stop offset="0.19" stop-color="#B1B1B1"/>
<stop offset="0.5" stop-color="white"/>
<stop offset="0.76" stop-color="#A4A4A4"/>
<stop offset="1" stop-color="#424242"/>
</linearGradient>
<linearGradient id="paint28_linear_153_299" x1="32.0496" y1="0" x2="32.0496" y2="75.8237" gradientUnits="userSpaceOnUse">
<stop stop-color="#121212"/>
<stop offset="0.07" stop-color="#C6C6C6"/>
<stop offset="0.125" stop-color="#646464"/>
<stop offset="0.25" stop-color="#3E3E3E"/>
<stop offset="0.48" stop-color="#232323"/>
<stop offset="0.57" stop-color="#7C7C7C"/>
<stop offset="0.68" stop-color="#2F2F2F"/>
<stop offset="0.815" stop-color="#606060"/>
<stop offset="1" stop-color="#262626"/>
</linearGradient>
<linearGradient id="paint29_linear_153_299" x1="3.60558" y1="-10.2362" x2="75.2736" y2="3.0688" gradientUnits="userSpaceOnUse">
<stop stop-color="#727272"/>
<stop offset="0.19" stop-color="#B1B1B1"/>
<stop offset="0.5" stop-color="white"/>
<stop offset="0.76" stop-color="#A4A4A4"/>
<stop offset="1" stop-color="#424242"/>
</linearGradient>
<linearGradient id="paint30_linear_153_299" x1="32.0496" y1="0" x2="32.0496" y2="75.8237" gradientUnits="userSpaceOnUse">
<stop stop-color="#121212"/>
<stop offset="0.07" stop-color="#C6C6C6"/>
<stop offset="0.125" stop-color="#646464"/>
<stop offset="0.25" stop-color="#3E3E3E"/>
<stop offset="0.48" stop-color="#232323"/>
<stop offset="0.57" stop-color="#7C7C7C"/>
<stop offset="0.68" stop-color="#2F2F2F"/>
<stop offset="0.815" stop-color="#606060"/>
<stop offset="1" stop-color="#262626"/>
</linearGradient>
<linearGradient id="paint31_linear_153_299" x1="3.60558" y1="-10.2362" x2="75.2736" y2="3.0688" gradientUnits="userSpaceOnUse">
<stop stop-color="#727272"/>
<stop offset="0.19" stop-color="#B1B1B1"/>
<stop offset="0.5" stop-color="white"/>
<stop offset="0.76" stop-color="#A4A4A4"/>
<stop offset="1" stop-color="#424242"/>
</linearGradient>
<linearGradient id="paint32_linear_153_299" x1="32.0496" y1="0" x2="32.0496" y2="75.8237" gradientUnits="userSpaceOnUse">
<stop stop-color="#121212"/>
<stop offset="0.07" stop-color="#C6C6C6"/>
<stop offset="0.125" stop-color="#646464"/>
<stop offset="0.25" stop-color="#3E3E3E"/>
<stop offset="0.48" stop-color="#232323"/>
<stop offset="0.57" stop-color="#7C7C7C"/>
<stop offset="0.68" stop-color="#2F2F2F"/>
<stop offset="0.815" stop-color="#606060"/>
<stop offset="1" stop-color="#262626"/>
</linearGradient>
<linearGradient id="paint33_linear_153_299" x1="3.60558" y1="-10.2362" x2="75.2736" y2="3.0688" gradientUnits="userSpaceOnUse">
<stop stop-color="#727272"/>
<stop offset="0.19" stop-color="#B1B1B1"/>
<stop offset="0.5" stop-color="white"/>
<stop offset="0.76" stop-color="#A4A4A4"/>
<stop offset="1" stop-color="#424242"/>
</linearGradient>
<linearGradient id="paint34_linear_153_299" x1="32.0496" y1="0" x2="32.0496" y2="75.8237" gradientUnits="userSpaceOnUse">
<stop stop-color="#121212"/>
<stop offset="0.07" stop-color="#C6C6C6"/>
<stop offset="0.125" stop-color="#646464"/>
<stop offset="0.25" stop-color="#3E3E3E"/>
<stop offset="0.48" stop-color="#232323"/>
<stop offset="0.57" stop-color="#7C7C7C"/>
<stop offset="0.68" stop-color="#2F2F2F"/>
<stop offset="0.815" stop-color="#606060"/>
<stop offset="1" stop-color="#262626"/>
</linearGradient>
<linearGradient id="paint35_linear_153_299" x1="3.60558" y1="-10.2362" x2="75.2736" y2="3.0688" gradientUnits="userSpaceOnUse">
<stop stop-color="#727272"/>
<stop offset="0.19" stop-color="#B1B1B1"/>
<stop offset="0.5" stop-color="white"/>
<stop offset="0.76" stop-color="#A4A4A4"/>
<stop offset="1" stop-color="#424242"/>
</linearGradient>
<linearGradient id="paint36_linear_153_299" x1="32.0496" y1="0" x2="32.0496" y2="75.8237" gradientUnits="userSpaceOnUse">
<stop stop-color="#121212"/>
<stop offset="0.07" stop-color="#C6C6C6"/>
<stop offset="0.125" stop-color="#646464"/>
<stop offset="0.25" stop-color="#3E3E3E"/>
<stop offset="0.48" stop-color="#232323"/>
<stop offset="0.57" stop-color="#7C7C7C"/>
<stop offset="0.68" stop-color="#2F2F2F"/>
<stop offset="0.815" stop-color="#606060"/>
<stop offset="1" stop-color="#262626"/>
</linearGradient>
<linearGradient id="paint37_linear_153_299" x1="3.60558" y1="-10.2362" x2="75.2736" y2="3.0688" gradientUnits="userSpaceOnUse">
<stop stop-color="#727272"/>
<stop offset="0.19" stop-color="#B1B1B1"/>
<stop offset="0.5" stop-color="white"/>
<stop offset="0.76" stop-color="#A4A4A4"/>
<stop offset="1" stop-color="#424242"/>
</linearGradient>
<linearGradient id="paint38_linear_153_299" x1="32.0496" y1="0" x2="32.0496" y2="75.8237" gradientUnits="userSpaceOnUse">
<stop stop-color="#121212"/>
<stop offset="0.07" stop-color="#C6C6C6"/>
<stop offset="0.125" stop-color="#646464"/>
<stop offset="0.25" stop-color="#3E3E3E"/>
<stop offset="0.48" stop-color="#232323"/>
<stop offset="0.57" stop-color="#7C7C7C"/>
<stop offset="0.68" stop-color="#2F2F2F"/>
<stop offset="0.815" stop-color="#606060"/>
<stop offset="1" stop-color="#262626"/>
</linearGradient>
<linearGradient id="paint39_linear_153_299" x1="3.60558" y1="-10.2362" x2="75.2736" y2="3.0688" gradientUnits="userSpaceOnUse">
<stop stop-color="#727272"/>
<stop offset="0.19" stop-color="#B1B1B1"/>
<stop offset="0.5" stop-color="white"/>
<stop offset="0.76" stop-color="#A4A4A4"/>
<stop offset="1" stop-color="#424242"/>
</linearGradient>
<linearGradient id="paint40_linear_153_299" x1="32.0496" y1="0" x2="32.0496" y2="75.8237" gradientUnits="userSpaceOnUse">
<stop stop-color="#121212"/>
<stop offset="0.07" stop-color="#C6C6C6"/>
<stop offset="0.125" stop-color="#646464"/>
<stop offset="0.25" stop-color="#3E3E3E"/>
<stop offset="0.48" stop-color="#232323"/>
<stop offset="0.57" stop-color="#7C7C7C"/>
<stop offset="0.68" stop-color="#2F2F2F"/>
<stop offset="0.815" stop-color="#606060"/>
<stop offset="1" stop-color="#262626"/>
</linearGradient>
<linearGradient id="paint41_linear_153_299" x1="3.60558" y1="-10.2362" x2="75.2736" y2="3.0688" gradientUnits="userSpaceOnUse">
<stop stop-color="#727272"/>
<stop offset="0.19" stop-color="#B1B1B1"/>
<stop offset="0.5" stop-color="white"/>
<stop offset="0.76" stop-color="#A4A4A4"/>
<stop offset="1" stop-color="#424242"/>
</linearGradient>
<linearGradient id="paint42_linear_153_299" x1="32.0496" y1="0" x2="32.0496" y2="75.8237" gradientUnits="userSpaceOnUse">
<stop stop-color="#121212"/>
<stop offset="0.07" stop-color="#C6C6C6"/>
<stop offset="0.125" stop-color="#646464"/>
<stop offset="0.25" stop-color="#3E3E3E"/>
<stop offset="0.48" stop-color="#232323"/>
<stop offset="0.57" stop-color="#7C7C7C"/>
<stop offset="0.68" stop-color="#2F2F2F"/>
<stop offset="0.815" stop-color="#606060"/>
<stop offset="1" stop-color="#262626"/>
</linearGradient>
<linearGradient id="paint43_linear_153_299" x1="3.60558" y1="-10.2362" x2="75.2736" y2="3.0688" gradientUnits="userSpaceOnUse">
<stop stop-color="#727272"/>
<stop offset="0.19" stop-color="#B1B1B1"/>
<stop offset="0.5" stop-color="white"/>
<stop offset="0.76" stop-color="#A4A4A4"/>
<stop offset="1" stop-color="#424242"/>
</linearGradient>
<linearGradient id="paint44_linear_153_299" x1="32.0496" y1="0" x2="32.0496" y2="75.8237" gradientUnits="userSpaceOnUse">
<stop stop-color="#121212"/>
<stop offset="0.07" stop-color="#C6C6C6"/>
<stop offset="0.125" stop-color="#646464"/>
<stop offset="0.25" stop-color="#3E3E3E"/>
<stop offset="0.48" stop-color="#232323"/>
<stop offset="0.57" stop-color="#7C7C7C"/>
<stop offset="0.68" stop-color="#2F2F2F"/>
<stop offset="0.815" stop-color="#606060"/>
<stop offset="1" stop-color="#262626"/>
</linearGradient>
<linearGradient id="paint45_linear_153_299" x1="3.60558" y1="-10.2362" x2="75.2736" y2="3.0688" gradientUnits="userSpaceOnUse">
<stop stop-color="#727272"/>
<stop offset="0.19" stop-color="#B1B1B1"/>
<stop offset="0.5" stop-color="white"/>
<stop offset="0.76" stop-color="#A4A4A4"/>
<stop offset="1" stop-color="#424242"/>
</linearGradient>
<linearGradient id="paint46_linear_153_299" x1="32.0496" y1="0" x2="32.0496" y2="75.8237" gradientUnits="userSpaceOnUse">
<stop stop-color="#121212"/>
<stop offset="0.07" stop-color="#C6C6C6"/>
<stop offset="0.125" stop-color="#646464"/>
<stop offset="0.25" stop-color="#3E3E3E"/>
<stop offset="0.48" stop-color="#232323"/>
<stop offset="0.57" stop-color="#7C7C7C"/>
<stop offset="0.68" stop-color="#2F2F2F"/>
<stop offset="0.815" stop-color="#606060"/>
<stop offset="1" stop-color="#262626"/>
</linearGradient>
<linearGradient id="paint47_linear_153_299" x1="3.60558" y1="-10.2362" x2="75.2736" y2="3.0688" gradientUnits="userSpaceOnUse">
<stop stop-color="#727272"/>
<stop offset="0.19" stop-color="#B1B1B1"/>
<stop offset="0.5" stop-color="white"/>
<stop offset="0.76" stop-color="#A4A4A4"/>
<stop offset="1" stop-color="#424242"/>
</linearGradient>
<linearGradient id="paint48_linear_153_299" x1="32.0496" y1="0" x2="32.0496" y2="75.8237" gradientUnits="userSpaceOnUse">
<stop stop-color="#121212"/>
<stop offset="0.07" stop-color="#C6C6C6"/>
<stop offset="0.125" stop-color="#646464"/>
<stop offset="0.25" stop-color="#3E3E3E"/>
<stop offset="0.48" stop-color="#232323"/>
<stop offset="0.57" stop-color="#7C7C7C"/>
<stop offset="0.68" stop-color="#2F2F2F"/>
<stop offset="0.815" stop-color="#606060"/>
<stop offset="1" stop-color="#262626"/>
</linearGradient>
<linearGradient id="paint49_linear_153_299" x1="3.60558" y1="-10.2362" x2="75.2736" y2="3.0688" gradientUnits="userSpaceOnUse">
<stop stop-color="#727272"/>
<stop offset="0.19" stop-color="#B1B1B1"/>
<stop offset="0.5" stop-color="white"/>
<stop offset="0.76" stop-color="#A4A4A4"/>
<stop offset="1" stop-color="#424242"/>
</linearGradient>
<linearGradient id="paint50_linear_153_299" x1="32.0496" y1="0" x2="32.0496" y2="75.8237" gradientUnits="userSpaceOnUse">
<stop stop-color="#121212"/>
<stop offset="0.07" stop-color="#C6C6C6"/>
<stop offset="0.125" stop-color="#646464"/>
<stop offset="0.25" stop-color="#3E3E3E"/>
<stop offset="0.48" stop-color="#232323"/>
<stop offset="0.57" stop-color="#7C7C7C"/>
<stop offset="0.68" stop-color="#2F2F2F"/>
<stop offset="0.815" stop-color="#606060"/>
<stop offset="1" stop-color="#262626"/>
</linearGradient>
<linearGradient id="paint51_linear_153_299" x1="3.60558" y1="-10.2362" x2="75.2736" y2="3.0688" gradientUnits="userSpaceOnUse">
<stop stop-color="#727272"/>
<stop offset="0.19" stop-color="#B1B1B1"/>
<stop offset="0.5" stop-color="white"/>
<stop offset="0.76" stop-color="#A4A4A4"/>
<stop offset="1" stop-color="#424242"/>
</linearGradient>
<linearGradient id="paint52_linear_153_299" x1="32.0496" y1="0" x2="32.0496" y2="75.8237" gradientUnits="userSpaceOnUse">
<stop stop-color="#121212"/>
<stop offset="0.07" stop-color="#C6C6C6"/>
<stop offset="0.125" stop-color="#646464"/>
<stop offset="0.25" stop-color="#3E3E3E"/>
<stop offset="0.48" stop-color="#232323"/>
<stop offset="0.57" stop-color="#7C7C7C"/>
<stop offset="0.68" stop-color="#2F2F2F"/>
<stop offset="0.815" stop-color="#606060"/>
<stop offset="1" stop-color="#262626"/>
</linearGradient>
<linearGradient id="paint53_linear_153_299" x1="3.60558" y1="-10.2362" x2="75.2736" y2="3.0688" gradientUnits="userSpaceOnUse">
<stop stop-color="#727272"/>
<stop offset="0.19" stop-color="#B1B1B1"/>
<stop offset="0.5" stop-color="white"/>
<stop offset="0.76" stop-color="#A4A4A4"/>
<stop offset="1" stop-color="#424242"/>
</linearGradient>
<linearGradient id="paint54_linear_153_299" x1="32.0496" y1="0" x2="32.0496" y2="75.8237" gradientUnits="userSpaceOnUse">
<stop stop-color="#121212"/>
<stop offset="0.07" stop-color="#C6C6C6"/>
<stop offset="0.125" stop-color="#646464"/>
<stop offset="0.25" stop-color="#3E3E3E"/>
<stop offset="0.48" stop-color="#232323"/>
<stop offset="0.57" stop-color="#7C7C7C"/>
<stop offset="0.68" stop-color="#2F2F2F"/>
<stop offset="0.815" stop-color="#606060"/>
<stop offset="1" stop-color="#262626"/>
</linearGradient>
<linearGradient id="paint55_linear_153_299" x1="3.60558" y1="-10.2362" x2="75.2736" y2="3.0688" gradientUnits="userSpaceOnUse">
<stop stop-color="#727272"/>
<stop offset="0.19" stop-color="#B1B1B1"/>
<stop offset="0.5" stop-color="white"/>
<stop offset="0.76" stop-color="#A4A4A4"/>
<stop offset="1" stop-color="#424242"/>
</linearGradient>
<linearGradient id="paint56_linear_153_299" x1="32.0496" y1="0" x2="32.0496" y2="75.8237" gradientUnits="userSpaceOnUse">
<stop stop-color="#121212"/>
<stop offset="0.07" stop-color="#C6C6C6"/>
<stop offset="0.125" stop-color="#646464"/>
<stop offset="0.25" stop-color="#3E3E3E"/>
<stop offset="0.48" stop-color="#232323"/>
<stop offset="0.57" stop-color="#7C7C7C"/>
<stop offset="0.68" stop-color="#2F2F2F"/>
<stop offset="0.815" stop-color="#606060"/>
<stop offset="1" stop-color="#262626"/>
</linearGradient>
<linearGradient id="paint57_linear_153_299" x1="3.60558" y1="-10.2362" x2="75.2736" y2="3.0688" gradientUnits="userSpaceOnUse">
<stop stop-color="#727272"/>
<stop offset="0.19" stop-color="#B1B1B1"/>
<stop offset="0.5" stop-color="white"/>
<stop offset="0.76" stop-color="#A4A4A4"/>
<stop offset="1" stop-color="#424242"/>
</linearGradient>
<linearGradient id="paint58_linear_153_299" x1="32.0496" y1="0" x2="32.0496" y2="75.8237" gradientUnits="userSpaceOnUse">
<stop stop-color="#121212"/>
<stop offset="0.07" stop-color="#C6C6C6"/>
<stop offset="0.125" stop-color="#646464"/>
<stop offset="0.25" stop-color="#3E3E3E"/>
<stop offset="0.48" stop-color="#232323"/>
<stop offset="0.57" stop-color="#7C7C7C"/>
<stop offset="0.68" stop-color="#2F2F2F"/>
<stop offset="0.815" stop-color="#606060"/>
<stop offset="1" stop-color="#262626"/>
</linearGradient>
<linearGradient id="paint59_linear_153_299" x1="3.60558" y1="-10.2362" x2="75.2736" y2="3.0688" gradientUnits="userSpaceOnUse">
<stop stop-color="#727272"/>
<stop offset="0.19" stop-color="#B1B1B1"/>
<stop offset="0.5" stop-color="white"/>
<stop offset="0.76" stop-color="#A4A4A4"/>
<stop offset="1" stop-color="#424242"/>
</linearGradient>
<linearGradient id="paint60_linear_153_299" x1="32.0496" y1="0" x2="32.0496" y2="75.8237" gradientUnits="userSpaceOnUse">
<stop stop-color="#121212"/>
<stop offset="0.07" stop-color="#C6C6C6"/>
<stop offset="0.125" stop-color="#646464"/>
<stop offset="0.25" stop-color="#3E3E3E"/>
<stop offset="0.48" stop-color="#232323"/>
<stop offset="0.57" stop-color="#7C7C7C"/>
<stop offset="0.68" stop-color="#2F2F2F"/>
<stop offset="0.815" stop-color="#606060"/>
<stop offset="1" stop-color="#262626"/>
</linearGradient>
<linearGradient id="paint61_linear_153_299" x1="3.60558" y1="-10.2362" x2="75.2736" y2="3.0688" gradientUnits="userSpaceOnUse">
<stop stop-color="#727272"/>
<stop offset="0.19" stop-color="#B1B1B1"/>
<stop offset="0.5" stop-color="white"/>
<stop offset="0.76" stop-color="#A4A4A4"/>
<stop offset="1" stop-color="#424242"/>
</linearGradient>
<linearGradient id="paint62_linear_153_299" x1="32.0496" y1="0" x2="32.0496" y2="75.8237" gradientUnits="userSpaceOnUse">
<stop stop-color="#121212"/>
<stop offset="0.07" stop-color="#C6C6C6"/>
<stop offset="0.125" stop-color="#646464"/>
<stop offset="0.25" stop-color="#3E3E3E"/>
<stop offset="0.48" stop-color="#232323"/>
<stop offset="0.57" stop-color="#7C7C7C"/>
<stop offset="0.68" stop-color="#2F2F2F"/>
<stop offset="0.815" stop-color="#606060"/>
<stop offset="1" stop-color="#262626"/>
</linearGradient>
<linearGradient id="paint63_linear_153_299" x1="3.60558" y1="-10.2362" x2="75.2736" y2="3.0688" gradientUnits="userSpaceOnUse">
<stop stop-color="#727272"/>
<stop offset="0.19" stop-color="#B1B1B1"/>
<stop offset="0.5" stop-color="white"/>
<stop offset="0.76" stop-color="#A4A4A4"/>
<stop offset="1" stop-color="#424242"/>
</linearGradient>
<linearGradient id="paint64_linear_153_299" x1="32.0496" y1="0" x2="32.0496" y2="75.8237" gradientUnits="userSpaceOnUse">
<stop stop-color="#121212"/>
<stop offset="0.07" stop-color="#C6C6C6"/>
<stop offset="0.125" stop-color="#646464"/>
<stop offset="0.25" stop-color="#3E3E3E"/>
<stop offset="0.48" stop-color="#232323"/>
<stop offset="0.57" stop-color="#7C7C7C"/>
<stop offset="0.68" stop-color="#2F2F2F"/>
<stop offset="0.815" stop-color="#606060"/>
<stop offset="1" stop-color="#262626"/>
</linearGradient>
<linearGradient id="paint65_linear_153_299" x1="3.60558" y1="-10.2362" x2="75.2736" y2="3.0688" gradientUnits="userSpaceOnUse">
<stop stop-color="#727272"/>
<stop offset="0.19" stop-color="#B1B1B1"/>
<stop offset="0.5" stop-color="white"/>
<stop offset="0.76" stop-color="#A4A4A4"/>
<stop offset="1" stop-color="#424242"/>
</linearGradient>
<linearGradient id="paint66_linear_153_299" x1="32.0496" y1="0" x2="32.0496" y2="75.8237" gradientUnits="userSpaceOnUse">
<stop stop-color="#121212"/>
<stop offset="0.07" stop-color="#C6C6C6"/>
<stop offset="0.125" stop-color="#646464"/>
<stop offset="0.25" stop-color="#3E3E3E"/>
<stop offset="0.48" stop-color="#232323"/>
<stop offset="0.57" stop-color="#7C7C7C"/>
<stop offset="0.68" stop-color="#2F2F2F"/>
<stop offset="0.815" stop-color="#606060"/>
<stop offset="1" stop-color="#262626"/>
</linearGradient>
<linearGradient id="paint67_linear_153_299" x1="3.60558" y1="-10.2362" x2="75.2736" y2="3.0688" gradientUnits="userSpaceOnUse">
<stop stop-color="#727272"/>
<stop offset="0.19" stop-color="#B1B1B1"/>
<stop offset="0.5" stop-color="white"/>
<stop offset="0.76" stop-color="#A4A4A4"/>
<stop offset="1" stop-color="#424242"/>
</linearGradient>
<linearGradient id="paint68_linear_153_299" x1="32.0496" y1="0" x2="32.0496" y2="75.8237" gradientUnits="userSpaceOnUse">
<stop stop-color="#121212"/>
<stop offset="0.07" stop-color="#C6C6C6"/>
<stop offset="0.125" stop-color="#646464"/>
<stop offset="0.25" stop-color="#3E3E3E"/>
<stop offset="0.48" stop-color="#232323"/>
<stop offset="0.57" stop-color="#7C7C7C"/>
<stop offset="0.68" stop-color="#2F2F2F"/>
<stop offset="0.815" stop-color="#606060"/>
<stop offset="1" stop-color="#262626"/>
</linearGradient>
<linearGradient id="paint69_linear_153_299" x1="3.60558" y1="-10.2362" x2="75.2736" y2="3.0688" gradientUnits="userSpaceOnUse">
<stop stop-color="#727272"/>
<stop offset="0.19" stop-color="#B1B1B1"/>
<stop offset="0.5" stop-color="white"/>
<stop offset="0.76" stop-color="#A4A4A4"/>
<stop offset="1" stop-color="#424242"/>
</linearGradient>
<linearGradient id="paint70_linear_153_299" x1="32.0496" y1="0" x2="32.0496" y2="75.8237" gradientUnits="userSpaceOnUse">
<stop stop-color="#121212"/>
<stop offset="0.07" stop-color="#C6C6C6"/>
<stop offset="0.125" stop-color="#646464"/>
<stop offset="0.25" stop-color="#3E3E3E"/>
<stop offset="0.48" stop-color="#232323"/>
<stop offset="0.57" stop-color="#7C7C7C"/>
<stop offset="0.68" stop-color="#2F2F2F"/>
<stop offset="0.815" stop-color="#606060"/>
<stop offset="1" stop-color="#262626"/>
</linearGradient>
<linearGradient id="paint71_linear_153_299" x1="3.60558" y1="-10.2362" x2="75.2736" y2="3.0688" gradientUnits="userSpaceOnUse">
<stop stop-color="#727272"/>
<stop offset="0.19" stop-color="#B1B1B1"/>
<stop offset="0.5" stop-color="white"/>
<stop offset="0.76" stop-color="#A4A4A4"/>
<stop offset="1" stop-color="#424242"/>
</linearGradient>
<linearGradient id="paint72_linear_153_299" x1="32.0496" y1="0" x2="32.0496" y2="75.8237" gradientUnits="userSpaceOnUse">
<stop stop-color="#121212"/>
<stop offset="0.07" stop-color="#C6C6C6"/>
<stop offset="0.125" stop-color="#646464"/>
<stop offset="0.25" stop-color="#3E3E3E"/>
<stop offset="0.48" stop-color="#232323"/>
<stop offset="0.57" stop-color="#7C7C7C"/>
<stop offset="0.68" stop-color="#2F2F2F"/>
<stop offset="0.815" stop-color="#606060"/>
<stop offset="1" stop-color="#262626"/>
</linearGradient>
<linearGradient id="paint73_linear_153_299" x1="3.60558" y1="-10.2362" x2="75.2736" y2="3.0688" gradientUnits="userSpaceOnUse">
<stop stop-color="#727272"/>
<stop offset="0.19" stop-color="#B1B1B1"/>
<stop offset="0.5" stop-color="white"/>
<stop offset="0.76" stop-color="#A4A4A4"/>
<stop offset="1" stop-color="#424242"/>
</linearGradient>
<linearGradient id="paint74_linear_153_299" x1="32.0496" y1="0" x2="32.0496" y2="75.8237" gradientUnits="userSpaceOnUse">
<stop stop-color="#121212"/>
<stop offset="0.07" stop-color="#C6C6C6"/>
<stop offset="0.125" stop-color="#646464"/>
<stop offset="0.25" stop-color="#3E3E3E"/>
<stop offset="0.48" stop-color="#232323"/>
<stop offset="0.57" stop-color="#7C7C7C"/>
<stop offset="0.68" stop-color="#2F2F2F"/>
<stop offset="0.815" stop-color="#606060"/>
<stop offset="1" stop-color="#262626"/>
</linearGradient>
<linearGradient id="paint75_linear_153_299" x1="3.60558" y1="-10.2362" x2="75.2736" y2="3.0688" gradientUnits="userSpaceOnUse">
<stop stop-color="#727272"/>
<stop offset="0.19" stop-color="#B1B1B1"/>
<stop offset="0.5" stop-color="white"/>
<stop offset="0.76" stop-color="#A4A4A4"/>
<stop offset="1" stop-color="#424242"/>
</linearGradient>
<linearGradient id="paint76_linear_153_299" x1="32.0496" y1="0" x2="32.0496" y2="75.8237" gradientUnits="userSpaceOnUse">
<stop stop-color="#121212"/>
<stop offset="0.07" stop-color="#C6C6C6"/>
<stop offset="0.125" stop-color="#646464"/>
<stop offset="0.25" stop-color="#3E3E3E"/>
<stop offset="0.48" stop-color="#232323"/>
<stop offset="0.57" stop-color="#7C7C7C"/>
<stop offset="0.68" stop-color="#2F2F2F"/>
<stop offset="0.815" stop-color="#606060"/>
<stop offset="1" stop-color="#262626"/>
</linearGradient>
<linearGradient id="paint77_linear_153_299" x1="3.60558" y1="-10.2362" x2="75.2736" y2="3.0688" gradientUnits="userSpaceOnUse">
<stop stop-color="#727272"/>
<stop offset="0.19" stop-color="#B1B1B1"/>
<stop offset="0.5" stop-color="white"/>
<stop offset="0.76" stop-color="#A4A4A4"/>
<stop offset="1" stop-color="#424242"/>
</linearGradient>
<linearGradient id="paint78_linear_153_299" x1="32.0496" y1="0" x2="32.0496" y2="75.8237" gradientUnits="userSpaceOnUse">
<stop stop-color="#121212"/>
<stop offset="0.07" stop-color="#C6C6C6"/>
<stop offset="0.125" stop-color="#646464"/>
<stop offset="0.25" stop-color="#3E3E3E"/>
<stop offset="0.48" stop-color="#232323"/>
<stop offset="0.57" stop-color="#7C7C7C"/>
<stop offset="0.68" stop-color="#2F2F2F"/>
<stop offset="0.815" stop-color="#606060"/>
<stop offset="1" stop-color="#262626"/>
</linearGradient>
<linearGradient id="paint79_linear_153_299" x1="3.60558" y1="-10.2362" x2="75.2736" y2="3.0688" gradientUnits="userSpaceOnUse">
<stop stop-color="#727272"/>
<stop offset="0.19" stop-color="#B1B1B1"/>
<stop offset="0.5" stop-color="white"/>
<stop offset="0.76" stop-color="#A4A4A4"/>
<stop offset="1" stop-color="#424242"/>
</linearGradient>
<linearGradient id="paint80_linear_153_299" x1="32.0496" y1="0" x2="32.0496" y2="75.8237" gradientUnits="userSpaceOnUse">
<stop stop-color="#121212"/>
<stop offset="0.07" stop-color="#C6C6C6"/>
<stop offset="0.125" stop-color="#646464"/>
<stop offset="0.25" stop-color="#3E3E3E"/>
<stop offset="0.48" stop-color="#232323"/>
<stop offset="0.57" stop-color="#7C7C7C"/>
<stop offset="0.68" stop-color="#2F2F2F"/>
<stop offset="0.815" stop-color="#606060"/>
<stop offset="1" stop-color="#262626"/>
</linearGradient>
<linearGradient id="paint81_linear_153_299" x1="3.60558" y1="-10.2362" x2="75.2736" y2="3.0688" gradientUnits="userSpaceOnUse">
<stop stop-color="#727272"/>
<stop offset="0.19" stop-color="#B1B1B1"/>
<stop offset="0.5" stop-color="white"/>
<stop offset="0.76" stop-color="#A4A4A4"/>
<stop offset="1" stop-color="#424242"/>
</linearGradient>
<linearGradient id="paint82_linear_153_299" x1="32.0496" y1="0" x2="32.0496" y2="75.8237" gradientUnits="userSpaceOnUse">
<stop stop-color="#121212"/>
<stop offset="0.07" stop-color="#C6C6C6"/>
<stop offset="0.125" stop-color="#646464"/>
<stop offset="0.25" stop-color="#3E3E3E"/>
<stop offset="0.48" stop-color="#232323"/>
<stop offset="0.57" stop-color="#7C7C7C"/>
<stop offset="0.68" stop-color="#2F2F2F"/>
<stop offset="0.815" stop-color="#606060"/>
<stop offset="1" stop-color="#262626"/>
</linearGradient>
<linearGradient id="paint83_linear_153_299" x1="3.60558" y1="-10.2362" x2="75.2736" y2="3.0688" gradientUnits="userSpaceOnUse">
<stop stop-color="#727272"/>
<stop offset="0.19" stop-color="#B1B1B1"/>
<stop offset="0.5" stop-color="white"/>
<stop offset="0.76" stop-color="#A4A4A4"/>
<stop offset="1" stop-color="#424242"/>
</linearGradient>
<linearGradient id="paint84_linear_153_299" x1="32.0496" y1="0" x2="32.0496" y2="75.8237" gradientUnits="userSpaceOnUse">
<stop stop-color="#121212"/>
<stop offset="0.07" stop-color="#C6C6C6"/>
<stop offset="0.125" stop-color="#646464"/>
<stop offset="0.25" stop-color="#3E3E3E"/>
<stop offset="0.48" stop-color="#232323"/>
<stop offset="0.57" stop-color="#7C7C7C"/>
<stop offset="0.68" stop-color="#2F2F2F"/>
<stop offset="0.815" stop-color="#606060"/>
<stop offset="1" stop-color="#262626"/>
</linearGradient>
<linearGradient id="paint85_linear_153_299" x1="3.60558" y1="-10.2362" x2="75.2736" y2="3.0688" gradientUnits="userSpaceOnUse">
<stop stop-color="#727272"/>
<stop offset="0.19" stop-color="#B1B1B1"/>
<stop offset="0.5" stop-color="white"/>
<stop offset="0.76" stop-color="#A4A4A4"/>
<stop offset="1" stop-color="#424242"/>
</linearGradient>
<linearGradient id="paint86_linear_153_299" x1="32.0496" y1="0" x2="32.0496" y2="75.8237" gradientUnits="userSpaceOnUse">
<stop stop-color="#121212"/>
<stop offset="0.07" stop-color="#C6C6C6"/>
<stop offset="0.125" stop-color="#646464"/>
<stop offset="0.25" stop-color="#3E3E3E"/>
<stop offset="0.48" stop-color="#232323"/>
<stop offset="0.57" stop-color="#7C7C7C"/>
<stop offset="0.68" stop-color="#2F2F2F"/>
<stop offset="0.815" stop-color="#606060"/>
<stop offset="1" stop-color="#262626"/>
</linearGradient>
<linearGradient id="paint87_linear_153_299" x1="3.60558" y1="-10.2362" x2="75.2736" y2="3.0688" gradientUnits="userSpaceOnUse">
<stop stop-color="#727272"/>
<stop offset="0.19" stop-color="#B1B1B1"/>
<stop offset="0.5" stop-color="white"/>
<stop offset="0.76" stop-color="#A4A4A4"/>
<stop offset="1" stop-color="#424242"/>
</linearGradient>
<linearGradient id="paint88_linear_153_299" x1="32.0496" y1="0" x2="32.0496" y2="75.8237" gradientUnits="userSpaceOnUse">
<stop stop-color="#121212"/>
<stop offset="0.07" stop-color="#C6C6C6"/>
<stop offset="0.125" stop-color="#646464"/>
<stop offset="0.25" stop-color="#3E3E3E"/>
<stop offset="0.48" stop-color="#232323"/>
<stop offset="0.57" stop-color="#7C7C7C"/>
<stop offset="0.68" stop-color="#2F2F2F"/>
<stop offset="0.815" stop-color="#606060"/>
<stop offset="1" stop-color="#262626"/>
</linearGradient>
<linearGradient id="paint89_linear_153_299" x1="3.60558" y1="-10.2362" x2="75.2736" y2="3.0688" gradientUnits="userSpaceOnUse">
<stop stop-color="#727272"/>
<stop offset="0.19" stop-color="#B1B1B1"/>
<stop offset="0.5" stop-color="white"/>
<stop offset="0.76" stop-color="#A4A4A4"/>
<stop offset="1" stop-color="#424242"/>
</linearGradient>
<linearGradient id="paint90_linear_153_299" x1="32.0496" y1="0" x2="32.0496" y2="75.8237" gradientUnits="userSpaceOnUse">
<stop stop-color="#121212"/>
<stop offset="0.07" stop-color="#C6C6C6"/>
<stop offset="0.125" stop-color="#646464"/>
<stop offset="0.25" stop-color="#3E3E3E"/>
<stop offset="0.48" stop-color="#232323"/>
<stop offset="0.57" stop-color="#7C7C7C"/>
<stop offset="0.68" stop-color="#2F2F2F"/>
<stop offset="0.815" stop-color="#606060"/>
<stop offset="1" stop-color="#262626"/>
</linearGradient>
<linearGradient id="paint91_linear_153_299" x1="3.60558" y1="-10.2362" x2="75.2736" y2="3.0688" gradientUnits="userSpaceOnUse">
<stop stop-color="#727272"/>
<stop offset="0.19" stop-color="#B1B1B1"/>
<stop offset="0.5" stop-color="white"/>
<stop offset="0.76" stop-color="#A4A4A4"/>
<stop offset="1" stop-color="#424242"/>
</linearGradient>
<linearGradient id="paint92_linear_153_299" x1="32.0496" y1="0" x2="32.0496" y2="75.8237" gradientUnits="userSpaceOnUse">
<stop stop-color="#121212"/>
<stop offset="0.07" stop-color="#C6C6C6"/>
<stop offset="0.125" stop-color="#646464"/>
<stop offset="0.25" stop-color="#3E3E3E"/>
<stop offset="0.48" stop-color="#232323"/>
<stop offset="0.57" stop-color="#7C7C7C"/>
<stop offset="0.68" stop-color="#2F2F2F"/>
<stop offset="0.815" stop-color="#606060"/>
<stop offset="1" stop-color="#262626"/>
</linearGradient>
<linearGradient id="paint93_linear_153_299" x1="3.60558" y1="-10.2362" x2="75.2736" y2="3.0688" gradientUnits="userSpaceOnUse">
<stop stop-color="#727272"/>
<stop offset="0.19" stop-color="#B1B1B1"/>
<stop offset="0.5" stop-color="white"/>
<stop offset="0.76" stop-color="#A4A4A4"/>
<stop offset="1" stop-color="#424242"/>
</linearGradient>
<linearGradient id="paint94_linear_153_299" x1="32.0496" y1="0" x2="32.0496" y2="75.8237" gradientUnits="userSpaceOnUse">
<stop stop-color="#121212"/>
<stop offset="0.07" stop-color="#C6C6C6"/>
<stop offset="0.125" stop-color="#646464"/>
<stop offset="0.25" stop-color="#3E3E3E"/>
<stop offset="0.48" stop-color="#232323"/>
<stop offset="0.57" stop-color="#7C7C7C"/>
<stop offset="0.68" stop-color="#2F2F2F"/>
<stop offset="0.815" stop-color="#606060"/>
<stop offset="1" stop-color="#262626"/>
</linearGradient>
<linearGradient id="paint95_linear_153_299" x1="3.60558" y1="-10.2362" x2="75.2736" y2="3.0688" gradientUnits="userSpaceOnUse">
<stop stop-color="#727272"/>
<stop offset="0.19" stop-color="#B1B1B1"/>
<stop offset="0.5" stop-color="white"/>
<stop offset="0.76" stop-color="#A4A4A4"/>
<stop offset="1" stop-color="#424242"/>
</linearGradient>
<linearGradient id="paint96_linear_153_299" x1="32.0496" y1="0" x2="32.0496" y2="75.8237" gradientUnits="userSpaceOnUse">
<stop stop-color="#121212"/>
<stop offset="0.07" stop-color="#C6C6C6"/>
<stop offset="0.125" stop-color="#646464"/>
<stop offset="0.25" stop-color="#3E3E3E"/>
<stop offset="0.48" stop-color="#232323"/>
<stop offset="0.57" stop-color="#7C7C7C"/>
<stop offset="0.68" stop-color="#2F2F2F"/>
<stop offset="0.815" stop-color="#606060"/>
<stop offset="1" stop-color="#262626"/>
</linearGradient>
<linearGradient id="paint97_linear_153_299" x1="3.60558" y1="-10.2362" x2="75.2736" y2="3.0688" gradientUnits="userSpaceOnUse">
<stop stop-color="#727272"/>
<stop offset="0.19" stop-color="#B1B1B1"/>
<stop offset="0.5" stop-color="white"/>
<stop offset="0.76" stop-color="#A4A4A4"/>
<stop offset="1" stop-color="#424242"/>
</linearGradient>
<linearGradient id="paint98_linear_153_299" x1="32.0496" y1="0" x2="32.0496" y2="75.8237" gradientUnits="userSpaceOnUse">
<stop stop-color="#121212"/>
<stop offset="0.07" stop-color="#C6C6C6"/>
<stop offset="0.125" stop-color="#646464"/>
<stop offset="0.25" stop-color="#3E3E3E"/>
<stop offset="0.48" stop-color="#232323"/>
<stop offset="0.57" stop-color="#7C7C7C"/>
<stop offset="0.68" stop-color="#2F2F2F"/>
<stop offset="0.815" stop-color="#606060"/>
<stop offset="1" stop-color="#262626"/>
</linearGradient>
<linearGradient id="paint99_linear_153_299" x1="3.60558" y1="-10.2362" x2="75.2736" y2="3.0688" gradientUnits="userSpaceOnUse">
<stop stop-color="#727272"/>
<stop offset="0.19" stop-color="#B1B1B1"/>
<stop offset="0.5" stop-color="white"/>
<stop offset="0.76" stop-color="#A4A4A4"/>
<stop offset="1" stop-color="#424242"/>
</linearGradient>
<linearGradient id="paint100_linear_153_299" x1="32.0496" y1="0" x2="32.0496" y2="75.8237" gradientUnits="userSpaceOnUse">
<stop stop-color="#121212"/>
<stop offset="0.07" stop-color="#C6C6C6"/>
<stop offset="0.125" stop-color="#646464"/>
<stop offset="0.25" stop-color="#3E3E3E"/>
<stop offset="0.48" stop-color="#232323"/>
<stop offset="0.57" stop-color="#7C7C7C"/>
<stop offset="0.68" stop-color="#2F2F2F"/>
<stop offset="0.815" stop-color="#606060"/>
<stop offset="1" stop-color="#262626"/>
</linearGradient>
<linearGradient id="paint101_linear_153_299" x1="3.60558" y1="-10.2362" x2="75.2736" y2="3.0688" gradientUnits="userSpaceOnUse">
<stop stop-color="#727272"/>
<stop offset="0.19" stop-color="#B1B1B1"/>
<stop offset="0.5" stop-color="white"/>
<stop offset="0.76" stop-color="#A4A4A4"/>
<stop offset="1" stop-color="#424242"/>
</linearGradient>
<linearGradient id="paint102_linear_153_299" x1="32.0496" y1="0" x2="32.0496" y2="75.8237" gradientUnits="userSpaceOnUse">
<stop stop-color="#121212"/>
<stop offset="0.07" stop-color="#C6C6C6"/>
<stop offset="0.125" stop-color="#646464"/>
<stop offset="0.25" stop-color="#3E3E3E"/>
<stop offset="0.48" stop-color="#232323"/>
<stop offset="0.57" stop-color="#7C7C7C"/>
<stop offset="0.68" stop-color="#2F2F2F"/>
<stop offset="0.815" stop-color="#606060"/>
<stop offset="1" stop-color="#262626"/>
</linearGradient>
<linearGradient id="paint103_linear_153_299" x1="3.60558" y1="-10.2362" x2="75.2736" y2="3.0688" gradientUnits="userSpaceOnUse">
<stop stop-color="#727272"/>
<stop offset="0.19" stop-color="#B1B1B1"/>
<stop offset="0.5" stop-color="white"/>
<stop offset="0.76" stop-color="#A4A4A4"/>
<stop offset="1" stop-color="#424242"/>
</linearGradient>
</defs>
</svg>
